<svg width="1569" height="285" viewBox="0 0 1569 285" fill="none" xmlns="http://www.w3.org/2000/svg">
<g filter="url(#filter0_d_2545_4746)">
<path d="M276.979 184.155C266.586 184.155 257.648 182.417 250.165 178.942C242.751 175.393 236.654 170.324 231.873 163.735C228.605 159.113 225.936 153.83 223.868 147.884C222.955 145.259 222.159 142.504 221.48 139.621C219.927 132.975 218.918 125.744 218.452 117.926C218.254 114.583 218.154 111.134 218.154 107.578C218.154 95.7018 219.297 85.0208 221.584 75.5345C223.94 66.0483 227.508 58.0104 232.289 51.4207C237.139 44.8311 243.271 39.7983 250.684 36.3224C258.098 32.7741 266.863 31 276.979 31C287.58 31 296.552 32.6655 303.897 35.9966C311.241 39.2552 317.2 44.0707 321.773 50.4431C326.415 56.8155 329.775 64.6362 331.854 73.9052C333.932 83.1018 334.972 93.638 334.972 105.514C334.972 117.462 333.863 128.288 331.646 137.992C329.429 147.623 325.964 155.878 321.253 162.757C316.541 169.564 310.514 174.85 303.169 178.616C295.894 182.309 287.164 184.155 276.979 184.155ZM276.979 165.147C283.561 165.147 289.035 163.698 293.4 160.802C297.834 157.905 301.368 153.85 304.001 148.636C306.703 143.35 308.608 137.05 309.717 129.736C310.895 122.423 311.484 114.348 311.484 105.514C311.484 96.0277 310.895 87.8087 309.717 80.857C308.608 73.8328 306.703 68.0397 304.001 63.4776C301.368 58.8431 297.834 55.4035 293.4 53.1586C289.035 50.9138 283.561 49.7914 276.979 49.7914C270.396 49.7914 264.819 51.0949 260.246 53.7018C255.742 56.2362 252.105 60.0018 249.333 64.9983C246.562 69.9225 244.552 75.969 243.305 83.138C242.127 90.307 241.538 98.4535 241.538 107.578C241.538 116.702 242.127 124.848 243.305 132.017C244.552 139.186 246.562 145.233 249.333 150.157C252.105 155.009 255.742 158.738 260.246 161.345C264.819 163.879 270.396 165.147 276.979 165.147Z" fill="#44A0E3"/>
<path d="M367.765 52.0724C362.569 52.1449 357.857 52.2173 353.631 52.2897C349.473 52.3621 345.905 52.4707 342.926 52.6155C339.462 52.7604 336.378 52.9052 333.676 53.05C333.538 52.1811 333.434 51.3121 333.364 50.4431C333.156 48.9224 333.053 47.0397 333.053 44.7948C333.053 43.4914 333.122 41.9345 333.26 40.1241C333.468 38.2414 333.815 36.1414 334.3 33.8241H426.798C426.867 34.5483 426.936 35.3086 427.005 36.1052C427.075 36.7569 427.144 37.5172 427.213 38.3862C427.283 39.1828 427.317 39.9793 427.317 40.7759C427.317 42.2242 427.179 44.1069 426.902 46.4242C426.694 48.7414 426.278 50.9138 425.654 52.9414C425.1 52.869 423.645 52.7966 421.289 52.7242C419.003 52.5793 416.231 52.4707 412.975 52.3983C409.718 52.3259 406.185 52.2535 402.374 52.1811C398.563 52.1086 394.856 52.0724 391.253 52.0724V104.976V131.695V181.331H367.765V52.0724Z" fill="#44A0E3"/>
<path d="M223.868 147.884C222.955 145.259 222.159 142.504 221.48 139.621C219.927 132.975 218.918 125.744 218.452 117.926C214.412 121.247 211.302 124.605 211.302 124.605C198.767 138.2 192.5 156.367 192.5 179.107C192.5 201.599 198.885 219.767 211.656 233.608C224.191 247.203 240.982 254 262.031 254H376.615C397.663 254 414.573 247.203 427.344 233.608C440.115 219.767 446.5 201.599 446.5 179.107C446.5 156.367 440.233 138.2 427.698 124.605C417.911 113.997 405.763 107.454 391.253 104.976V131.695C399.235 133.728 406.062 137.792 411.735 143.885C420.249 152.783 424.506 164.523 424.506 179.107C424.506 193.69 420.367 205.431 412.089 214.329C403.575 223.227 392.342 227.676 378.388 227.676L260.612 227.676C246.658 227.676 235.543 223.227 227.265 214.329C218.751 205.431 214.494 193.69 214.494 179.107C214.494 166.613 217.619 156.205 223.868 147.884Z" fill="#44A0E3"/>
<path d="M430.638 121.893C420.999 111.445 409.166 104.697 395.253 101.677V101.601V56.0871C397.56 56.1039 399.908 56.1349 402.298 56.1803C406.105 56.2527 409.634 56.325 412.886 56.3973C416.108 56.469 418.822 56.5759 421.036 56.7162L421.101 56.7203L421.166 56.7223C423.604 56.7972 424.825 56.8671 425.136 56.9077L428.485 57.3452L429.478 54.1172C430.185 51.8169 430.648 49.388 430.88 46.8412C431.162 44.4737 431.317 42.4352 431.317 40.7759C431.317 39.8675 431.278 38.9597 431.199 38.0526C431.13 37.1821 431.059 36.4036 430.987 35.7211C430.918 34.9277 430.849 34.1684 430.779 33.4432L430.433 29.8241H426.798H334.3H331.05L330.385 33.0047C329.879 35.4182 329.509 37.6479 329.285 39.6852L329.277 39.7519L329.272 39.8189C329.128 41.6946 329.053 43.3588 329.053 44.7948C329.053 47.0963 329.156 49.135 329.386 50.8722C329.464 51.8094 329.577 52.7454 329.726 53.6799L330.23 56.8375C328.712 53.7076 326.975 50.7928 325.014 48.0999C320.02 41.1444 313.501 35.8849 305.534 32.3469C297.537 28.7234 287.971 27 276.979 27C266.406 27 257.031 28.8533 248.972 32.7074C240.961 36.4661 234.31 41.9264 229.067 49.0497L229.059 49.0607L229.051 49.0718C223.914 56.1518 220.157 64.6833 217.702 74.5705L217.698 74.5839L217.695 74.5973C215.321 84.4482 214.154 95.4516 214.154 107.578C214.154 110.491 214.219 113.338 214.351 116.119L214.338 116.129L214.341 116.165C212.859 117.452 211.562 118.676 210.565 119.651C209.894 120.308 209.352 120.858 208.976 121.248C208.787 121.443 208.639 121.598 208.536 121.707C208.485 121.761 208.445 121.804 208.416 121.834L208.383 121.87L208.372 121.881L208.369 121.885L208.368 121.886L208.367 121.887C208.367 121.887 208.367 121.887 211.29 124.595L208.367 121.887L208.361 121.894C194.997 136.387 188.5 155.604 188.5 179.107C188.5 202.397 195.135 221.6 208.716 236.32C222.116 250.853 240.035 258 262.031 258H376.615C398.611 258 416.631 250.854 430.259 236.347L430.271 236.334L430.283 236.321C443.864 221.601 450.5 202.398 450.5 179.107C450.5 155.604 444.003 136.387 430.639 121.894L430.638 121.893ZM343.12 56.6108C346.045 56.4686 349.569 56.361 353.699 56.2891L353.7 56.2891C356.794 56.2361 360.149 56.183 363.765 56.13V181.331V185.331H367.765H391.253H395.253V181.331V137.198C400.373 139.264 404.88 142.392 408.807 146.61L408.826 146.63L408.844 146.65C416.517 154.669 420.506 165.351 420.506 179.107C420.506 192.881 416.623 203.571 409.18 211.584C401.526 219.572 391.399 223.676 378.388 223.676L260.612 223.676C247.589 223.676 237.6 219.566 230.194 211.604L230.175 211.584L230.156 211.563C222.483 203.544 218.494 192.862 218.494 179.107C218.494 170.435 220.081 162.999 223.155 156.691C224.745 160.031 226.561 163.151 228.607 166.044L228.621 166.064L228.635 166.084C233.811 173.217 240.43 178.717 248.438 182.55L248.459 182.56L248.48 182.569C256.609 186.345 266.15 188.155 276.979 188.155C287.64 188.155 297.021 186.222 304.98 182.182L304.987 182.179L304.994 182.175C312.927 178.108 319.457 172.38 324.542 165.034L324.548 165.025L324.553 165.017C329.595 157.656 333.235 148.919 335.544 138.889L335.546 138.883C337.841 128.835 338.972 117.704 338.972 105.514C338.972 93.4141 337.914 82.5726 335.755 73.0234C334.467 67.2793 332.694 62.0073 330.418 57.2304L333.89 57.0443C336.573 56.9005 339.64 56.7564 343.093 56.6121L343.107 56.6115L343.12 56.6108ZM276.979 161.147C270.919 161.147 266.057 159.984 262.217 157.864C258.389 155.64 255.253 152.451 252.813 148.184C250.324 143.758 248.439 138.179 247.249 131.35C246.116 124.446 245.538 116.529 245.538 107.578C245.538 98.6265 246.116 90.7092 247.249 83.8051C248.44 76.9703 250.327 71.3884 252.819 66.9602L252.825 66.9494L252.831 66.9385C255.283 62.5189 258.416 59.3214 262.208 57.1877L262.217 57.1822L262.227 57.1768C266.063 54.99 270.919 53.7914 276.979 53.7914C283.132 53.7914 287.931 54.844 291.57 56.7158L291.582 56.7217L291.593 56.7274C295.274 58.591 298.249 61.4508 300.523 65.4535L300.54 65.485L300.559 65.5161C302.932 69.5223 304.711 74.7956 305.766 81.4805L305.769 81.5029L305.773 81.5252C306.903 88.1956 307.484 96.1804 307.484 105.514C307.484 114.175 306.906 122.032 305.768 129.1L305.765 129.119L305.762 129.137C304.703 136.125 302.904 141.994 300.439 146.816L300.434 146.824L300.43 146.833C298.081 151.485 294.998 154.98 291.212 157.453L291.2 157.461L291.188 157.469C287.628 159.831 282.976 161.147 276.979 161.147Z" stroke="white" stroke-width="8"/>
</g>
<g filter="url(#filter1_d_2545_4746)">
<mask id="path-3-outside-1_2545_4746" maskUnits="userSpaceOnUse" x="462" y="67" width="939" height="195" fill="black">
<rect fill="white" x="462" y="67" width="939" height="195"/>
<path d="M470 189.164C470 178.42 471.275 168.936 473.824 160.715C476.446 152.493 480.087 145.615 484.748 140.08C489.482 134.545 495.09 130.352 501.572 127.503C508.127 124.654 515.337 123.23 523.203 123.23C531.287 123.23 538.57 124.573 545.052 127.259C551.534 129.864 557.033 133.853 561.549 139.225C566.064 144.598 569.524 151.313 571.927 159.372C574.33 167.349 575.532 176.71 575.532 187.455C575.532 198.2 574.294 207.724 571.818 216.027C569.414 224.329 565.919 231.289 561.33 236.906C556.815 242.523 551.316 246.796 544.834 249.726C538.425 252.576 531.215 254 523.203 254C514.9 254 507.435 252.657 500.808 249.971C494.253 247.203 488.681 243.133 484.093 237.761C479.577 232.307 476.081 225.55 473.605 217.492C471.202 209.352 470 199.909 470 189.164ZM523.203 233.853C528.01 233.853 532.161 232.714 535.657 230.435C539.226 228.074 542.139 224.859 544.397 220.789C546.655 216.637 548.33 211.753 549.422 206.136C550.515 200.438 551.061 194.211 551.061 187.455C551.061 172.884 548.84 161.773 544.397 154.121C539.954 146.47 532.89 142.644 523.203 142.644C518.323 142.644 514.063 143.824 510.421 146.185C506.853 148.464 503.866 151.679 501.463 155.831C499.132 159.982 497.384 164.907 496.219 170.605C495.054 176.303 494.471 182.49 494.471 189.164C494.471 203.898 496.802 215.05 501.463 222.62C506.197 230.109 513.444 233.853 523.203 233.853Z"/>
<path d="M597.979 149.115L589.349 139.225V125.428H609.45L618.845 134.952L622.014 134.219C622.523 133.731 623.689 132.876 625.509 131.655C627.403 130.434 629.697 129.213 632.392 127.992C635.16 126.771 638.291 125.713 641.787 124.817C645.283 123.84 648.961 123.352 652.821 123.352C658.939 123.352 664.365 124.369 669.099 126.405C673.906 128.44 677.948 131.37 681.225 135.196C684.503 138.94 686.979 143.458 688.654 148.749C690.329 154.04 691.167 159.982 691.167 166.576V251.558H667.679V169.14C667.679 160.267 666.004 153.755 662.653 149.604C659.376 145.371 654.132 143.254 646.922 143.254C643.353 143.254 640.039 143.621 636.98 144.353C633.921 145.005 631.227 145.778 628.896 146.673C626.201 147.65 623.689 148.79 621.358 150.092V251.558H597.979V149.115Z"/>
<path d="M720.933 149.115L712.303 139.225V125.428H732.404L741.799 134.952L744.968 134.219C745.477 133.731 746.643 132.876 748.463 131.655C750.357 130.434 752.651 129.213 755.346 127.992C758.114 126.771 761.245 125.713 764.741 124.817C768.237 123.84 771.915 123.352 775.775 123.352C781.893 123.352 787.319 124.369 792.053 126.405C796.86 128.44 800.902 131.37 804.179 135.196C807.457 138.94 809.933 143.458 811.608 148.749C813.283 154.04 814.121 159.982 814.121 166.576V251.558H790.633V169.14C790.633 160.267 788.958 153.755 785.607 149.604C782.33 145.371 777.086 143.254 769.876 143.254C766.307 143.254 762.993 143.621 759.934 144.353C756.875 145.005 754.181 145.778 751.85 146.673C749.155 147.65 746.643 148.79 744.312 150.092V251.558H720.933V149.115Z"/>
<path d="M835.694 190.385C835.694 178.664 836.968 168.57 839.517 160.104C842.067 151.639 845.635 144.679 850.224 139.225C854.812 133.771 860.274 129.783 866.611 127.259C873.02 124.654 880.048 123.352 887.695 123.352C894.76 123.352 901.06 124.695 906.595 127.381C912.203 129.986 916.937 133.69 920.797 138.492C924.657 143.295 927.607 149.034 929.646 155.709C931.685 162.384 932.705 169.75 932.705 177.809C932.705 180.577 932.595 183.141 932.377 185.501C932.159 187.862 931.904 189.897 931.612 191.606C931.321 193.641 930.993 195.473 930.629 197.101L858.963 196.735C859.036 203.979 859.728 210.003 861.039 214.806C862.35 219.527 864.28 223.271 866.829 226.039C869.451 228.807 872.728 230.76 876.661 231.9C880.594 232.958 885.255 233.487 890.645 233.487C895.233 233.487 899.348 233.161 902.99 232.51C906.631 231.859 909.727 231.086 912.276 230.19C915.189 229.214 917.811 228.074 920.141 226.771C921.234 229.621 922.071 232.266 922.654 234.708C923.31 237.15 923.783 239.267 924.074 241.057C924.366 243.174 924.584 245.046 924.73 246.674C922.326 248.058 919.413 249.279 915.99 250.337C913.077 251.232 909.508 252.046 905.284 252.779C901.06 253.593 896.18 254 890.645 254C881.905 254 874.112 252.901 867.266 250.703C860.493 248.505 854.739 244.924 850.005 239.958C845.344 234.912 841.775 228.359 839.299 220.3C836.895 212.16 835.694 202.189 835.694 190.385ZM909.326 178.908V174.756C909.326 169.628 908.743 165.111 907.578 161.203C906.486 157.215 904.956 153.877 902.99 151.191C901.023 148.505 898.693 146.47 895.998 145.086C893.303 143.702 890.39 143.01 887.258 143.01C882.67 143.01 878.628 143.702 875.132 145.086C871.636 146.388 868.686 148.505 866.283 151.435C863.952 154.284 862.204 157.988 861.039 162.546C859.874 167.105 859.291 172.559 859.291 178.908H909.326Z"/>
<path d="M947.505 188.92C947.505 178.175 948.67 168.733 951.001 160.593C953.331 152.371 956.718 145.493 961.16 139.958C965.676 134.422 971.175 130.271 977.657 127.503C984.211 124.654 991.677 123.23 1000.05 123.23C1003.11 123.23 1006.21 123.555 1009.34 124.207C1012.47 124.858 1015.31 125.55 1017.86 126.282C1020.77 127.178 1023.61 128.195 1026.38 129.335C1026.16 131.614 1025.83 133.975 1025.4 136.417C1025.03 138.533 1024.49 140.853 1023.76 143.377C1023.1 145.819 1022.27 148.22 1021.25 150.58C1019.28 149.685 1017.17 148.83 1014.91 148.016C1012.94 147.365 1010.69 146.755 1008.14 146.185C1005.59 145.615 1002.89 145.33 1000.05 145.33C995.173 145.33 990.912 146.348 987.27 148.383C983.702 150.336 980.716 153.226 978.312 157.052C975.909 160.796 974.124 165.355 972.959 170.727C971.794 176.1 971.211 182.123 971.211 188.798C971.211 203.45 973.724 214.561 978.749 222.132C983.847 229.702 991.312 233.487 1001.14 233.487C1004.06 233.487 1006.83 233.243 1009.45 232.754C1012.07 232.185 1014.44 231.574 1016.55 230.923C1018.95 230.109 1021.21 229.214 1023.32 228.237C1024.05 230.028 1024.71 231.981 1025.29 234.098C1025.8 235.97 1026.23 238.127 1026.6 240.569C1027.04 242.93 1027.22 245.494 1027.15 248.261C1024.45 249.319 1021.65 250.296 1018.73 251.192C1016.26 251.924 1013.45 252.576 1010.32 253.145C1007.26 253.715 1004.2 254 1001.14 254C984.029 254 970.811 248.546 961.488 237.638C952.166 226.731 947.505 210.491 947.505 188.92Z"/>
<path d="M1050.03 145.696H1035.72C1035.65 144.801 1035.57 143.824 1035.5 142.766C1035.43 141.871 1035.35 140.812 1035.28 139.591C1035.28 138.37 1035.28 137.027 1035.28 135.562C1035.28 134.097 1035.32 132.754 1035.39 131.533C1035.46 130.23 1035.57 128.643 1035.72 126.771H1050.03V107.357L1062.59 91.4836H1072.32V126.771H1103.23C1103.38 127.585 1103.49 128.562 1103.56 129.701C1103.71 130.841 1103.78 131.94 1103.78 132.998C1103.78 134.87 1103.6 136.58 1103.23 138.126C1102.94 139.673 1102.61 141.016 1102.25 142.156C1101.81 143.458 1101.3 144.638 1100.72 145.696H1072.32V216.515C1072.32 222.457 1073.19 226.771 1074.94 229.458C1076.76 232.144 1079.64 233.487 1083.57 233.487C1085.24 233.487 1086.99 233.284 1088.81 232.877C1090.71 232.388 1092.49 231.818 1094.17 231.167C1096.06 230.435 1097.99 229.621 1099.96 228.725C1101.41 230.842 1102.54 232.917 1103.34 234.952C1104.22 236.987 1104.83 238.819 1105.2 240.447C1105.64 242.319 1105.89 244.069 1105.96 245.697C1103.92 247.244 1101.63 248.628 1099.08 249.849C1096.82 250.907 1094.13 251.843 1091 252.657C1087.87 253.552 1084.26 254 1080.18 254C1074.5 254 1069.73 253.186 1065.87 251.558C1062.08 250.011 1058.99 247.691 1056.58 244.598C1054.25 241.424 1052.58 237.516 1051.56 232.877C1050.54 228.155 1050.03 222.742 1050.03 216.637V145.696Z"/>
<path d="M1136.93 105.647C1134.89 105.647 1132.96 105.24 1131.14 104.426C1129.39 103.612 1127.83 102.513 1126.44 101.13C1125.13 99.7458 1124.08 98.1585 1123.28 96.3677C1122.48 94.4955 1122.07 92.5011 1122.07 90.3847C1122.07 88.1869 1122.48 86.1519 1123.28 84.2797C1124.08 82.4075 1125.13 80.7794 1126.44 79.3956C1127.83 78.0118 1129.39 76.9536 1131.14 76.221C1132.96 75.407 1134.89 75 1136.93 75C1138.97 75 1140.9 75.407 1142.72 76.221C1144.54 76.9536 1146.11 78.0118 1147.42 79.3956C1148.8 80.7794 1149.9 82.4075 1150.7 84.2797C1151.5 86.1519 1151.9 88.1869 1151.9 90.3847C1151.9 92.5011 1151.5 94.4955 1150.7 96.3677C1149.9 98.1585 1148.8 99.7458 1147.42 101.13C1146.11 102.513 1144.54 103.612 1142.72 104.426C1140.9 105.24 1138.97 105.647 1136.93 105.647ZM1124.37 126.771H1147.09V231.045L1153.54 236.173V251.558H1147.31L1147.09 251.314V251.558C1139.88 251.558 1134.27 249.93 1130.27 246.674C1126.34 243.418 1124.37 238.045 1124.37 230.557V126.771Z"/>
<path d="M1171.83 189.164C1171.83 178.42 1173.11 168.936 1175.66 160.715C1178.28 152.493 1181.92 145.615 1186.58 140.08C1191.32 134.545 1196.92 130.352 1203.41 127.503C1209.96 124.654 1217.17 123.23 1225.04 123.23C1233.12 123.23 1240.4 124.573 1246.89 127.259C1253.37 129.864 1258.87 133.853 1263.38 139.225C1267.9 144.598 1271.36 151.313 1273.76 159.372C1276.16 167.349 1277.37 176.71 1277.37 187.455C1277.37 198.2 1276.13 207.724 1273.65 216.027C1271.25 224.329 1267.75 231.289 1263.16 236.906C1258.65 242.523 1253.15 246.796 1246.67 249.726C1240.26 252.576 1233.05 254 1225.04 254C1216.73 254 1209.27 252.657 1202.64 249.971C1196.09 247.203 1190.51 243.133 1185.93 237.761C1181.41 232.307 1177.91 225.55 1175.44 217.492C1173.04 209.352 1171.83 199.909 1171.83 189.164ZM1225.04 233.853C1229.84 233.853 1233.99 232.714 1237.49 230.435C1241.06 228.074 1243.97 224.859 1246.23 220.789C1248.49 216.637 1250.16 211.753 1251.26 206.136C1252.35 200.438 1252.89 194.211 1252.89 187.455C1252.89 172.884 1250.67 161.773 1246.23 154.121C1241.79 146.47 1234.72 142.644 1225.04 142.644C1220.16 142.644 1215.9 143.824 1212.25 146.185C1208.69 148.464 1205.7 151.679 1203.3 155.831C1200.97 159.982 1199.22 164.907 1198.05 170.605C1196.89 176.303 1196.3 182.49 1196.3 189.164C1196.3 203.898 1198.64 215.05 1203.3 222.62C1208.03 230.109 1215.28 233.853 1225.04 233.853Z"/>
<path d="M1299.81 149.115L1291.18 139.225V125.428H1311.28L1320.68 134.952L1323.85 134.219C1324.36 133.731 1325.52 132.876 1327.34 131.655C1329.24 130.434 1331.53 129.213 1334.23 127.992C1336.99 126.771 1340.12 125.713 1343.62 124.817C1347.12 123.84 1350.79 123.352 1354.65 123.352C1360.77 123.352 1366.2 124.369 1370.93 126.405C1375.74 128.44 1379.78 131.37 1383.06 135.196C1386.34 138.94 1388.81 143.458 1390.49 148.749C1392.16 154.04 1393 159.982 1393 166.576V251.558H1369.51V169.14C1369.51 160.267 1367.84 153.755 1364.49 149.604C1361.21 145.371 1355.97 143.254 1348.76 143.254C1345.19 143.254 1341.87 143.621 1338.81 144.353C1335.75 145.005 1333.06 145.778 1330.73 146.673C1328.03 147.65 1325.52 148.79 1323.19 150.092V251.558H1299.81V149.115Z"/>
</mask>
<path d="M470 189.164C470 178.42 471.275 168.936 473.824 160.715C476.446 152.493 480.087 145.615 484.748 140.08C489.482 134.545 495.09 130.352 501.572 127.503C508.127 124.654 515.337 123.23 523.203 123.23C531.287 123.23 538.57 124.573 545.052 127.259C551.534 129.864 557.033 133.853 561.549 139.225C566.064 144.598 569.524 151.313 571.927 159.372C574.33 167.349 575.532 176.71 575.532 187.455C575.532 198.2 574.294 207.724 571.818 216.027C569.414 224.329 565.919 231.289 561.33 236.906C556.815 242.523 551.316 246.796 544.834 249.726C538.425 252.576 531.215 254 523.203 254C514.9 254 507.435 252.657 500.808 249.971C494.253 247.203 488.681 243.133 484.093 237.761C479.577 232.307 476.081 225.55 473.605 217.492C471.202 209.352 470 199.909 470 189.164ZM523.203 233.853C528.01 233.853 532.161 232.714 535.657 230.435C539.226 228.074 542.139 224.859 544.397 220.789C546.655 216.637 548.33 211.753 549.422 206.136C550.515 200.438 551.061 194.211 551.061 187.455C551.061 172.884 548.84 161.773 544.397 154.121C539.954 146.47 532.89 142.644 523.203 142.644C518.323 142.644 514.063 143.824 510.421 146.185C506.853 148.464 503.866 151.679 501.463 155.831C499.132 159.982 497.384 164.907 496.219 170.605C495.054 176.303 494.471 182.49 494.471 189.164C494.471 203.898 496.802 215.05 501.463 222.62C506.197 230.109 513.444 233.853 523.203 233.853Z" fill="#44A0E3"/>
<path d="M597.979 149.115L589.349 139.225V125.428H609.45L618.845 134.952L622.014 134.219C622.523 133.731 623.689 132.876 625.509 131.655C627.403 130.434 629.697 129.213 632.392 127.992C635.16 126.771 638.291 125.713 641.787 124.817C645.283 123.84 648.961 123.352 652.821 123.352C658.939 123.352 664.365 124.369 669.099 126.405C673.906 128.44 677.948 131.37 681.225 135.196C684.503 138.94 686.979 143.458 688.654 148.749C690.329 154.04 691.167 159.982 691.167 166.576V251.558H667.679V169.14C667.679 160.267 666.004 153.755 662.653 149.604C659.376 145.371 654.132 143.254 646.922 143.254C643.353 143.254 640.039 143.621 636.98 144.353C633.921 145.005 631.227 145.778 628.896 146.673C626.201 147.65 623.689 148.79 621.358 150.092V251.558H597.979V149.115Z" fill="#44A0E3"/>
<path d="M720.933 149.115L712.303 139.225V125.428H732.404L741.799 134.952L744.968 134.219C745.477 133.731 746.643 132.876 748.463 131.655C750.357 130.434 752.651 129.213 755.346 127.992C758.114 126.771 761.245 125.713 764.741 124.817C768.237 123.84 771.915 123.352 775.775 123.352C781.893 123.352 787.319 124.369 792.053 126.405C796.86 128.44 800.902 131.37 804.179 135.196C807.457 138.94 809.933 143.458 811.608 148.749C813.283 154.04 814.121 159.982 814.121 166.576V251.558H790.633V169.14C790.633 160.267 788.958 153.755 785.607 149.604C782.33 145.371 777.086 143.254 769.876 143.254C766.307 143.254 762.993 143.621 759.934 144.353C756.875 145.005 754.181 145.778 751.85 146.673C749.155 147.65 746.643 148.79 744.312 150.092V251.558H720.933V149.115Z" fill="#44A0E3"/>
<path d="M835.694 190.385C835.694 178.664 836.968 168.57 839.517 160.104C842.067 151.639 845.635 144.679 850.224 139.225C854.812 133.771 860.274 129.783 866.611 127.259C873.02 124.654 880.048 123.352 887.695 123.352C894.76 123.352 901.06 124.695 906.595 127.381C912.203 129.986 916.937 133.69 920.797 138.492C924.657 143.295 927.607 149.034 929.646 155.709C931.685 162.384 932.705 169.75 932.705 177.809C932.705 180.577 932.595 183.141 932.377 185.501C932.159 187.862 931.904 189.897 931.612 191.606C931.321 193.641 930.993 195.473 930.629 197.101L858.963 196.735C859.036 203.979 859.728 210.003 861.039 214.806C862.35 219.527 864.28 223.271 866.829 226.039C869.451 228.807 872.728 230.76 876.661 231.9C880.594 232.958 885.255 233.487 890.645 233.487C895.233 233.487 899.348 233.161 902.99 232.51C906.631 231.859 909.727 231.086 912.276 230.19C915.189 229.214 917.811 228.074 920.141 226.771C921.234 229.621 922.071 232.266 922.654 234.708C923.31 237.15 923.783 239.267 924.074 241.057C924.366 243.174 924.584 245.046 924.73 246.674C922.326 248.058 919.413 249.279 915.99 250.337C913.077 251.232 909.508 252.046 905.284 252.779C901.06 253.593 896.18 254 890.645 254C881.905 254 874.112 252.901 867.266 250.703C860.493 248.505 854.739 244.924 850.005 239.958C845.344 234.912 841.775 228.359 839.299 220.3C836.895 212.16 835.694 202.189 835.694 190.385ZM909.326 178.908V174.756C909.326 169.628 908.743 165.111 907.578 161.203C906.486 157.215 904.956 153.877 902.99 151.191C901.023 148.505 898.693 146.47 895.998 145.086C893.303 143.702 890.39 143.01 887.258 143.01C882.67 143.01 878.628 143.702 875.132 145.086C871.636 146.388 868.686 148.505 866.283 151.435C863.952 154.284 862.204 157.988 861.039 162.546C859.874 167.105 859.291 172.559 859.291 178.908H909.326Z" fill="#44A0E3"/>
<path d="M947.505 188.92C947.505 178.175 948.67 168.733 951.001 160.593C953.331 152.371 956.718 145.493 961.16 139.958C965.676 134.422 971.175 130.271 977.657 127.503C984.211 124.654 991.677 123.23 1000.05 123.23C1003.11 123.23 1006.21 123.555 1009.34 124.207C1012.47 124.858 1015.31 125.55 1017.86 126.282C1020.77 127.178 1023.61 128.195 1026.38 129.335C1026.16 131.614 1025.83 133.975 1025.4 136.417C1025.03 138.533 1024.49 140.853 1023.76 143.377C1023.1 145.819 1022.27 148.22 1021.25 150.58C1019.28 149.685 1017.17 148.83 1014.91 148.016C1012.94 147.365 1010.69 146.755 1008.14 146.185C1005.59 145.615 1002.89 145.33 1000.05 145.33C995.173 145.33 990.912 146.348 987.27 148.383C983.702 150.336 980.716 153.226 978.312 157.052C975.909 160.796 974.124 165.355 972.959 170.727C971.794 176.1 971.211 182.123 971.211 188.798C971.211 203.45 973.724 214.561 978.749 222.132C983.847 229.702 991.312 233.487 1001.14 233.487C1004.06 233.487 1006.83 233.243 1009.45 232.754C1012.07 232.185 1014.44 231.574 1016.55 230.923C1018.95 230.109 1021.21 229.214 1023.32 228.237C1024.05 230.028 1024.71 231.981 1025.29 234.098C1025.8 235.97 1026.23 238.127 1026.6 240.569C1027.04 242.93 1027.22 245.494 1027.15 248.261C1024.45 249.319 1021.65 250.296 1018.73 251.192C1016.26 251.924 1013.45 252.576 1010.32 253.145C1007.26 253.715 1004.2 254 1001.14 254C984.029 254 970.811 248.546 961.488 237.638C952.166 226.731 947.505 210.491 947.505 188.92Z" fill="#44A0E3"/>
<path d="M1050.03 145.696H1035.72C1035.65 144.801 1035.57 143.824 1035.5 142.766C1035.43 141.871 1035.35 140.812 1035.28 139.591C1035.28 138.37 1035.28 137.027 1035.28 135.562C1035.28 134.097 1035.32 132.754 1035.39 131.533C1035.46 130.23 1035.57 128.643 1035.72 126.771H1050.03V107.357L1062.59 91.4836H1072.32V126.771H1103.23C1103.38 127.585 1103.49 128.562 1103.56 129.701C1103.71 130.841 1103.78 131.94 1103.78 132.998C1103.78 134.87 1103.6 136.58 1103.23 138.126C1102.94 139.673 1102.61 141.016 1102.25 142.156C1101.81 143.458 1101.3 144.638 1100.72 145.696H1072.32V216.515C1072.32 222.457 1073.19 226.771 1074.94 229.458C1076.76 232.144 1079.64 233.487 1083.57 233.487C1085.24 233.487 1086.99 233.284 1088.81 232.877C1090.71 232.388 1092.49 231.818 1094.17 231.167C1096.06 230.435 1097.99 229.621 1099.96 228.725C1101.41 230.842 1102.54 232.917 1103.34 234.952C1104.22 236.987 1104.83 238.819 1105.2 240.447C1105.64 242.319 1105.89 244.069 1105.96 245.697C1103.92 247.244 1101.63 248.628 1099.08 249.849C1096.82 250.907 1094.13 251.843 1091 252.657C1087.87 253.552 1084.26 254 1080.18 254C1074.5 254 1069.73 253.186 1065.87 251.558C1062.08 250.011 1058.99 247.691 1056.58 244.598C1054.25 241.424 1052.58 237.516 1051.56 232.877C1050.54 228.155 1050.03 222.742 1050.03 216.637V145.696Z" fill="#44A0E3"/>
<path d="M1136.93 105.647C1134.89 105.647 1132.96 105.24 1131.14 104.426C1129.39 103.612 1127.83 102.513 1126.44 101.13C1125.13 99.7458 1124.08 98.1585 1123.28 96.3677C1122.48 94.4955 1122.07 92.5011 1122.07 90.3847C1122.07 88.1869 1122.48 86.1519 1123.28 84.2797C1124.08 82.4075 1125.13 80.7794 1126.44 79.3956C1127.83 78.0118 1129.39 76.9536 1131.14 76.221C1132.96 75.407 1134.89 75 1136.93 75C1138.97 75 1140.9 75.407 1142.72 76.221C1144.54 76.9536 1146.11 78.0118 1147.42 79.3956C1148.8 80.7794 1149.9 82.4075 1150.7 84.2797C1151.5 86.1519 1151.9 88.1869 1151.9 90.3847C1151.9 92.5011 1151.5 94.4955 1150.7 96.3677C1149.9 98.1585 1148.8 99.7458 1147.42 101.13C1146.11 102.513 1144.54 103.612 1142.72 104.426C1140.9 105.24 1138.97 105.647 1136.93 105.647ZM1124.37 126.771H1147.09V231.045L1153.54 236.173V251.558H1147.31L1147.09 251.314V251.558C1139.88 251.558 1134.27 249.93 1130.27 246.674C1126.34 243.418 1124.37 238.045 1124.37 230.557V126.771Z" fill="#44A0E3"/>
<path d="M1171.83 189.164C1171.83 178.42 1173.11 168.936 1175.66 160.715C1178.28 152.493 1181.92 145.615 1186.58 140.08C1191.32 134.545 1196.92 130.352 1203.41 127.503C1209.96 124.654 1217.17 123.23 1225.04 123.23C1233.12 123.23 1240.4 124.573 1246.89 127.259C1253.37 129.864 1258.87 133.853 1263.38 139.225C1267.9 144.598 1271.36 151.313 1273.76 159.372C1276.16 167.349 1277.37 176.71 1277.37 187.455C1277.37 198.2 1276.13 207.724 1273.65 216.027C1271.25 224.329 1267.75 231.289 1263.16 236.906C1258.65 242.523 1253.15 246.796 1246.67 249.726C1240.26 252.576 1233.05 254 1225.04 254C1216.73 254 1209.27 252.657 1202.64 249.971C1196.09 247.203 1190.51 243.133 1185.93 237.761C1181.41 232.307 1177.91 225.55 1175.44 217.492C1173.04 209.352 1171.83 199.909 1171.83 189.164ZM1225.04 233.853C1229.84 233.853 1233.99 232.714 1237.49 230.435C1241.06 228.074 1243.97 224.859 1246.23 220.789C1248.49 216.637 1250.16 211.753 1251.26 206.136C1252.35 200.438 1252.89 194.211 1252.89 187.455C1252.89 172.884 1250.67 161.773 1246.23 154.121C1241.79 146.47 1234.72 142.644 1225.04 142.644C1220.16 142.644 1215.9 143.824 1212.25 146.185C1208.69 148.464 1205.7 151.679 1203.3 155.831C1200.97 159.982 1199.22 164.907 1198.05 170.605C1196.89 176.303 1196.3 182.49 1196.3 189.164C1196.3 203.898 1198.64 215.05 1203.3 222.62C1208.03 230.109 1215.28 233.853 1225.04 233.853Z" fill="#44A0E3"/>
<path d="M1299.81 149.115L1291.18 139.225V125.428H1311.28L1320.68 134.952L1323.85 134.219C1324.36 133.731 1325.52 132.876 1327.34 131.655C1329.24 130.434 1331.53 129.213 1334.23 127.992C1336.99 126.771 1340.12 125.713 1343.62 124.817C1347.12 123.84 1350.79 123.352 1354.65 123.352C1360.77 123.352 1366.2 124.369 1370.93 126.405C1375.74 128.44 1379.78 131.37 1383.06 135.196C1386.34 138.94 1388.81 143.458 1390.49 148.749C1392.16 154.04 1393 159.982 1393 166.576V251.558H1369.51V169.14C1369.51 160.267 1367.84 153.755 1364.49 149.604C1361.21 145.371 1355.97 143.254 1348.76 143.254C1345.19 143.254 1341.87 143.621 1338.81 144.353C1335.75 145.005 1333.06 145.778 1330.73 146.673C1328.03 147.65 1325.52 148.79 1323.19 150.092V251.558H1299.81V149.115Z" fill="#44A0E3"/>
<path d="M470 189.164C470 178.42 471.275 168.936 473.824 160.715C476.446 152.493 480.087 145.615 484.748 140.08C489.482 134.545 495.09 130.352 501.572 127.503C508.127 124.654 515.337 123.23 523.203 123.23C531.287 123.23 538.57 124.573 545.052 127.259C551.534 129.864 557.033 133.853 561.549 139.225C566.064 144.598 569.524 151.313 571.927 159.372C574.33 167.349 575.532 176.71 575.532 187.455C575.532 198.2 574.294 207.724 571.818 216.027C569.414 224.329 565.919 231.289 561.33 236.906C556.815 242.523 551.316 246.796 544.834 249.726C538.425 252.576 531.215 254 523.203 254C514.9 254 507.435 252.657 500.808 249.971C494.253 247.203 488.681 243.133 484.093 237.761C479.577 232.307 476.081 225.55 473.605 217.492C471.202 209.352 470 199.909 470 189.164ZM523.203 233.853C528.01 233.853 532.161 232.714 535.657 230.435C539.226 228.074 542.139 224.859 544.397 220.789C546.655 216.637 548.33 211.753 549.422 206.136C550.515 200.438 551.061 194.211 551.061 187.455C551.061 172.884 548.84 161.773 544.397 154.121C539.954 146.47 532.89 142.644 523.203 142.644C518.323 142.644 514.063 143.824 510.421 146.185C506.853 148.464 503.866 151.679 501.463 155.831C499.132 159.982 497.384 164.907 496.219 170.605C495.054 176.303 494.471 182.49 494.471 189.164C494.471 203.898 496.802 215.05 501.463 222.62C506.197 230.109 513.444 233.853 523.203 233.853Z" stroke="white" stroke-width="16" mask="url(#path-3-outside-1_2545_4746)"/>
<path d="M597.979 149.115L589.349 139.225V125.428H609.45L618.845 134.952L622.014 134.219C622.523 133.731 623.689 132.876 625.509 131.655C627.403 130.434 629.697 129.213 632.392 127.992C635.16 126.771 638.291 125.713 641.787 124.817C645.283 123.84 648.961 123.352 652.821 123.352C658.939 123.352 664.365 124.369 669.099 126.405C673.906 128.44 677.948 131.37 681.225 135.196C684.503 138.94 686.979 143.458 688.654 148.749C690.329 154.04 691.167 159.982 691.167 166.576V251.558H667.679V169.14C667.679 160.267 666.004 153.755 662.653 149.604C659.376 145.371 654.132 143.254 646.922 143.254C643.353 143.254 640.039 143.621 636.98 144.353C633.921 145.005 631.227 145.778 628.896 146.673C626.201 147.65 623.689 148.79 621.358 150.092V251.558H597.979V149.115Z" stroke="white" stroke-width="16" mask="url(#path-3-outside-1_2545_4746)"/>
<path d="M720.933 149.115L712.303 139.225V125.428H732.404L741.799 134.952L744.968 134.219C745.477 133.731 746.643 132.876 748.463 131.655C750.357 130.434 752.651 129.213 755.346 127.992C758.114 126.771 761.245 125.713 764.741 124.817C768.237 123.84 771.915 123.352 775.775 123.352C781.893 123.352 787.319 124.369 792.053 126.405C796.86 128.44 800.902 131.37 804.179 135.196C807.457 138.94 809.933 143.458 811.608 148.749C813.283 154.04 814.121 159.982 814.121 166.576V251.558H790.633V169.14C790.633 160.267 788.958 153.755 785.607 149.604C782.33 145.371 777.086 143.254 769.876 143.254C766.307 143.254 762.993 143.621 759.934 144.353C756.875 145.005 754.181 145.778 751.85 146.673C749.155 147.65 746.643 148.79 744.312 150.092V251.558H720.933V149.115Z" stroke="white" stroke-width="16" mask="url(#path-3-outside-1_2545_4746)"/>
<path d="M835.694 190.385C835.694 178.664 836.968 168.57 839.517 160.104C842.067 151.639 845.635 144.679 850.224 139.225C854.812 133.771 860.274 129.783 866.611 127.259C873.02 124.654 880.048 123.352 887.695 123.352C894.76 123.352 901.06 124.695 906.595 127.381C912.203 129.986 916.937 133.69 920.797 138.492C924.657 143.295 927.607 149.034 929.646 155.709C931.685 162.384 932.705 169.75 932.705 177.809C932.705 180.577 932.595 183.141 932.377 185.501C932.159 187.862 931.904 189.897 931.612 191.606C931.321 193.641 930.993 195.473 930.629 197.101L858.963 196.735C859.036 203.979 859.728 210.003 861.039 214.806C862.35 219.527 864.28 223.271 866.829 226.039C869.451 228.807 872.728 230.76 876.661 231.9C880.594 232.958 885.255 233.487 890.645 233.487C895.233 233.487 899.348 233.161 902.99 232.51C906.631 231.859 909.727 231.086 912.276 230.19C915.189 229.214 917.811 228.074 920.141 226.771C921.234 229.621 922.071 232.266 922.654 234.708C923.31 237.15 923.783 239.267 924.074 241.057C924.366 243.174 924.584 245.046 924.73 246.674C922.326 248.058 919.413 249.279 915.99 250.337C913.077 251.232 909.508 252.046 905.284 252.779C901.06 253.593 896.18 254 890.645 254C881.905 254 874.112 252.901 867.266 250.703C860.493 248.505 854.739 244.924 850.005 239.958C845.344 234.912 841.775 228.359 839.299 220.3C836.895 212.16 835.694 202.189 835.694 190.385ZM909.326 178.908V174.756C909.326 169.628 908.743 165.111 907.578 161.203C906.486 157.215 904.956 153.877 902.99 151.191C901.023 148.505 898.693 146.47 895.998 145.086C893.303 143.702 890.39 143.01 887.258 143.01C882.67 143.01 878.628 143.702 875.132 145.086C871.636 146.388 868.686 148.505 866.283 151.435C863.952 154.284 862.204 157.988 861.039 162.546C859.874 167.105 859.291 172.559 859.291 178.908H909.326Z" stroke="white" stroke-width="16" mask="url(#path-3-outside-1_2545_4746)"/>
<path d="M947.505 188.92C947.505 178.175 948.67 168.733 951.001 160.593C953.331 152.371 956.718 145.493 961.16 139.958C965.676 134.422 971.175 130.271 977.657 127.503C984.211 124.654 991.677 123.23 1000.05 123.23C1003.11 123.23 1006.21 123.555 1009.34 124.207C1012.47 124.858 1015.31 125.55 1017.86 126.282C1020.77 127.178 1023.61 128.195 1026.38 129.335C1026.16 131.614 1025.83 133.975 1025.4 136.417C1025.03 138.533 1024.49 140.853 1023.76 143.377C1023.1 145.819 1022.27 148.22 1021.25 150.58C1019.28 149.685 1017.17 148.83 1014.91 148.016C1012.94 147.365 1010.69 146.755 1008.14 146.185C1005.59 145.615 1002.89 145.33 1000.05 145.33C995.173 145.33 990.912 146.348 987.27 148.383C983.702 150.336 980.716 153.226 978.312 157.052C975.909 160.796 974.124 165.355 972.959 170.727C971.794 176.1 971.211 182.123 971.211 188.798C971.211 203.45 973.724 214.561 978.749 222.132C983.847 229.702 991.312 233.487 1001.14 233.487C1004.06 233.487 1006.83 233.243 1009.45 232.754C1012.07 232.185 1014.44 231.574 1016.55 230.923C1018.95 230.109 1021.21 229.214 1023.32 228.237C1024.05 230.028 1024.71 231.981 1025.29 234.098C1025.8 235.97 1026.23 238.127 1026.6 240.569C1027.04 242.93 1027.22 245.494 1027.15 248.261C1024.45 249.319 1021.65 250.296 1018.73 251.192C1016.26 251.924 1013.45 252.576 1010.32 253.145C1007.26 253.715 1004.2 254 1001.14 254C984.029 254 970.811 248.546 961.488 237.638C952.166 226.731 947.505 210.491 947.505 188.92Z" stroke="white" stroke-width="16" mask="url(#path-3-outside-1_2545_4746)"/>
<path d="M1050.03 145.696H1035.72C1035.65 144.801 1035.57 143.824 1035.5 142.766C1035.43 141.871 1035.35 140.812 1035.28 139.591C1035.28 138.37 1035.28 137.027 1035.28 135.562C1035.28 134.097 1035.32 132.754 1035.39 131.533C1035.46 130.23 1035.57 128.643 1035.72 126.771H1050.03V107.357L1062.59 91.4836H1072.32V126.771H1103.23C1103.38 127.585 1103.49 128.562 1103.56 129.701C1103.71 130.841 1103.78 131.94 1103.78 132.998C1103.78 134.87 1103.6 136.58 1103.23 138.126C1102.94 139.673 1102.61 141.016 1102.25 142.156C1101.81 143.458 1101.3 144.638 1100.72 145.696H1072.32V216.515C1072.32 222.457 1073.19 226.771 1074.94 229.458C1076.76 232.144 1079.64 233.487 1083.57 233.487C1085.24 233.487 1086.99 233.284 1088.81 232.877C1090.71 232.388 1092.49 231.818 1094.17 231.167C1096.06 230.435 1097.99 229.621 1099.96 228.725C1101.41 230.842 1102.54 232.917 1103.34 234.952C1104.22 236.987 1104.83 238.819 1105.2 240.447C1105.64 242.319 1105.89 244.069 1105.96 245.697C1103.92 247.244 1101.63 248.628 1099.08 249.849C1096.82 250.907 1094.13 251.843 1091 252.657C1087.87 253.552 1084.26 254 1080.18 254C1074.5 254 1069.73 253.186 1065.87 251.558C1062.08 250.011 1058.99 247.691 1056.58 244.598C1054.25 241.424 1052.58 237.516 1051.56 232.877C1050.54 228.155 1050.03 222.742 1050.03 216.637V145.696Z" stroke="white" stroke-width="16" mask="url(#path-3-outside-1_2545_4746)"/>
<path d="M1136.93 105.647C1134.89 105.647 1132.96 105.24 1131.14 104.426C1129.39 103.612 1127.83 102.513 1126.44 101.13C1125.13 99.7458 1124.08 98.1585 1123.28 96.3677C1122.48 94.4955 1122.07 92.5011 1122.07 90.3847C1122.07 88.1869 1122.48 86.1519 1123.28 84.2797C1124.08 82.4075 1125.13 80.7794 1126.44 79.3956C1127.83 78.0118 1129.39 76.9536 1131.14 76.221C1132.96 75.407 1134.89 75 1136.93 75C1138.97 75 1140.9 75.407 1142.72 76.221C1144.54 76.9536 1146.11 78.0118 1147.42 79.3956C1148.8 80.7794 1149.9 82.4075 1150.7 84.2797C1151.5 86.1519 1151.9 88.1869 1151.9 90.3847C1151.9 92.5011 1151.5 94.4955 1150.7 96.3677C1149.9 98.1585 1148.8 99.7458 1147.42 101.13C1146.11 102.513 1144.54 103.612 1142.72 104.426C1140.9 105.24 1138.97 105.647 1136.93 105.647ZM1124.37 126.771H1147.09V231.045L1153.54 236.173V251.558H1147.31L1147.09 251.314V251.558C1139.88 251.558 1134.27 249.93 1130.27 246.674C1126.34 243.418 1124.37 238.045 1124.37 230.557V126.771Z" stroke="white" stroke-width="16" mask="url(#path-3-outside-1_2545_4746)"/>
<path d="M1171.83 189.164C1171.83 178.42 1173.11 168.936 1175.66 160.715C1178.28 152.493 1181.92 145.615 1186.58 140.08C1191.32 134.545 1196.92 130.352 1203.41 127.503C1209.96 124.654 1217.17 123.23 1225.04 123.23C1233.12 123.23 1240.4 124.573 1246.89 127.259C1253.37 129.864 1258.87 133.853 1263.38 139.225C1267.9 144.598 1271.36 151.313 1273.76 159.372C1276.16 167.349 1277.37 176.71 1277.37 187.455C1277.37 198.2 1276.13 207.724 1273.65 216.027C1271.25 224.329 1267.75 231.289 1263.16 236.906C1258.65 242.523 1253.15 246.796 1246.67 249.726C1240.26 252.576 1233.05 254 1225.04 254C1216.73 254 1209.27 252.657 1202.64 249.971C1196.09 247.203 1190.51 243.133 1185.93 237.761C1181.41 232.307 1177.91 225.55 1175.44 217.492C1173.04 209.352 1171.83 199.909 1171.83 189.164ZM1225.04 233.853C1229.84 233.853 1233.99 232.714 1237.49 230.435C1241.06 228.074 1243.97 224.859 1246.23 220.789C1248.49 216.637 1250.16 211.753 1251.26 206.136C1252.35 200.438 1252.89 194.211 1252.89 187.455C1252.89 172.884 1250.67 161.773 1246.23 154.121C1241.79 146.47 1234.72 142.644 1225.04 142.644C1220.16 142.644 1215.9 143.824 1212.25 146.185C1208.69 148.464 1205.7 151.679 1203.3 155.831C1200.97 159.982 1199.22 164.907 1198.05 170.605C1196.89 176.303 1196.3 182.49 1196.3 189.164C1196.3 203.898 1198.64 215.05 1203.3 222.62C1208.03 230.109 1215.28 233.853 1225.04 233.853Z" stroke="white" stroke-width="16" mask="url(#path-3-outside-1_2545_4746)"/>
<path d="M1299.81 149.115L1291.18 139.225V125.428H1311.28L1320.68 134.952L1323.85 134.219C1324.36 133.731 1325.52 132.876 1327.34 131.655C1329.24 130.434 1331.53 129.213 1334.23 127.992C1336.99 126.771 1340.12 125.713 1343.62 124.817C1347.12 123.84 1350.79 123.352 1354.65 123.352C1360.77 123.352 1366.2 124.369 1370.93 126.405C1375.74 128.44 1379.78 131.37 1383.06 135.196C1386.34 138.94 1388.81 143.458 1390.49 148.749C1392.16 154.04 1393 159.982 1393 166.576V251.558H1369.51V169.14C1369.51 160.267 1367.84 153.755 1364.49 149.604C1361.21 145.371 1355.97 143.254 1348.76 143.254C1345.19 143.254 1341.87 143.621 1338.81 144.353C1335.75 145.005 1333.06 145.778 1330.73 146.673C1328.03 147.65 1325.52 148.79 1323.19 150.092V251.558H1299.81V149.115Z" stroke="white" stroke-width="16" mask="url(#path-3-outside-1_2545_4746)"/>
</g>
<defs>
<filter id="filter0_d_2545_4746" x="180.5" y="23" width="278" height="247" filterUnits="userSpaceOnUse" color-interpolation-filters="sRGB">
<feFlood flood-opacity="0" result="BackgroundImageFix"/>
<feColorMatrix in="SourceAlpha" type="matrix" values="0 0 0 0 0 0 0 0 0 0 0 0 0 0 0 0 0 0 127 0" result="hardAlpha"/>
<feOffset dy="4"/>
<feGaussianBlur stdDeviation="2"/>
<feComposite in2="hardAlpha" operator="out"/>
<feColorMatrix type="matrix" values="0 0 0 0 0 0 0 0 0 0 0 0 0 0 0 0 0 0 0.25 0"/>
<feBlend mode="normal" in2="BackgroundImageFix" result="effect1_dropShadow_2545_4746"/>
<feBlend mode="normal" in="SourceGraphic" in2="effect1_dropShadow_2545_4746" result="shape"/>
</filter>
<filter id="filter1_d_2545_4746" x="458" y="67" width="947" height="203" filterUnits="userSpaceOnUse" color-interpolation-filters="sRGB">
<feFlood flood-opacity="0" result="BackgroundImageFix"/>
<feColorMatrix in="SourceAlpha" type="matrix" values="0 0 0 0 0 0 0 0 0 0 0 0 0 0 0 0 0 0 127 0" result="hardAlpha"/>
<feOffset dy="4"/>
<feGaussianBlur stdDeviation="2"/>
<feComposite in2="hardAlpha" operator="out"/>
<feColorMatrix type="matrix" values="0 0 0 0 0 0 0 0 0 0 0 0 0 0 0 0 0 0 0.25 0"/>
<feBlend mode="normal" in2="BackgroundImageFix" result="effect1_dropShadow_2545_4746"/>
<feBlend mode="normal" in="SourceGraphic" in2="effect1_dropShadow_2545_4746" result="shape"/>
</filter>
</defs>
</svg>
