<svg width="177" height="42" viewBox="0 0 177 42" fill="none" xmlns="http://www.w3.org/2000/svg">
<g filter="url(#filter0_d_1330_3695)">
<path d="M17.3082 22.6039C15.917 22.6039 14.7206 22.3701 13.7189 21.9025C12.7265 21.4251 11.9103 20.7432 11.2704 19.8567C10.8329 19.235 10.4757 18.5242 10.1989 17.7243C10.0767 17.3711 9.97011 17.0006 9.8792 16.6127C9.67129 15.7187 9.53621 14.7458 9.47394 13.694C9.44733 13.2444 9.43402 12.7804 9.43402 12.3019C9.43402 10.7043 9.58705 9.26737 9.89311 7.99119C10.2085 6.71502 10.6861 5.63368 11.326 4.74718C11.9753 3.86068 12.7961 3.18363 13.7885 2.71602C14.7808 2.23867 15.9541 2 17.3082 2C18.7272 2 19.9282 2.22406 20.9114 2.67218C21.8945 3.11056 22.6921 3.75839 23.3042 4.61567C23.9256 5.47294 24.3754 6.52506 24.6537 7.772C24.9319 9.00921 25.071 10.4266 25.071 12.0243C25.071 13.6317 24.9226 15.0881 24.6258 16.3935C24.3291 17.6891 23.8653 18.7997 23.2346 19.7252C22.604 20.6409 21.7971 21.352 20.814 21.8586C19.8401 22.3554 18.6715 22.6039 17.3082 22.6039ZM17.3082 20.0466C18.1893 20.0466 18.922 19.8518 19.5063 19.4621C20.0998 19.0725 20.5728 18.5269 20.9253 17.8255C21.287 17.1144 21.542 16.2668 21.6904 15.2829C21.8481 14.299 21.9269 13.2128 21.9269 12.0243C21.9269 10.7481 21.8481 9.64242 21.6904 8.70721C21.542 7.76226 21.287 6.98292 20.9253 6.36919C20.5728 5.74571 20.0998 5.28298 19.5063 4.98098C18.922 4.67899 18.1893 4.52799 17.3082 4.52799C16.4271 4.52799 15.6805 4.70334 15.0683 5.05405C14.4655 5.39501 13.9786 5.90158 13.6076 6.57376C13.2366 7.23621 12.9676 8.04964 12.8007 9.01408C12.643 9.97852 12.5642 11.0745 12.5642 12.3019C12.5642 13.5294 12.643 14.6253 12.8007 15.5898C12.9676 16.5542 13.2366 17.3677 13.6076 18.0301C13.9786 18.6828 14.4655 19.1845 15.0683 19.5352C15.6805 19.8762 16.4271 20.0466 17.3082 20.0466Z" fill="#44A0E3"/>
<path d="M29.4607 4.83486C28.7651 4.8446 28.1344 4.85434 27.5687 4.86408C27.0122 4.87382 26.5346 4.88844 26.1357 4.90792C25.672 4.9274 25.2593 4.94689 24.8976 4.96637C24.879 4.84947 24.8651 4.73257 24.8559 4.61567C24.828 4.41109 24.8141 4.1578 24.8141 3.85581C24.8141 3.68046 24.8234 3.47101 24.8419 3.22746C24.8698 2.97418 24.9161 2.69167 24.9811 2.37993H37.3627C37.3719 2.47735 37.3812 2.57964 37.3905 2.6868C37.3998 2.77447 37.409 2.87676 37.4183 2.99366C37.4276 3.10082 37.4322 3.20798 37.4322 3.31514C37.4322 3.50998 37.4137 3.76326 37.3766 4.075C37.3488 4.38674 37.2931 4.67899 37.2096 4.95176C37.1354 4.94202 36.9407 4.93228 36.6253 4.92253C36.3193 4.90305 35.9483 4.88844 35.5124 4.8787C35.0765 4.86895 34.6035 4.85921 34.0934 4.84947C33.5833 4.83973 33.0871 4.83486 32.6048 4.83486V11.9519V15.5464V22.2239H29.4607V4.83486Z" fill="#44A0E3"/>
<path d="M10.1989 17.7243C10.0767 17.3711 9.97011 17.0006 9.8792 16.6127C9.67129 15.7187 9.53621 14.7458 9.47394 13.694C8.93306 14.1408 8.51676 14.5926 8.51676 14.5926C6.83892 16.4215 6 18.8655 6 21.9247C6 24.9506 6.85475 27.3946 8.56424 29.2567C10.2421 31.0856 12.4898 32 15.3073 32H30.6453C33.4628 32 35.7263 31.0856 37.4358 29.2567C39.1453 27.3946 40 24.9506 40 21.9247C40 18.8655 39.1611 16.4215 37.4832 14.5926C36.1732 13.1656 34.547 12.2853 32.6048 11.9519V15.5464C33.6732 15.8199 34.5871 16.3666 35.3464 17.1863C36.486 18.3833 37.0559 19.9628 37.0559 21.9247C37.0559 23.8865 36.5019 25.466 35.3939 26.6631C34.2542 27.8601 32.7505 28.4587 30.8827 28.4587L15.1173 28.4587C13.2495 28.4587 11.7616 27.8601 10.6536 26.6631C9.51397 25.466 8.94413 23.8865 8.94413 21.9247C8.94413 20.2439 9.36239 18.8437 10.1989 17.7243Z" fill="#44A0E3"/>
<path d="M13.2854 22.8037L13.2854 22.8036C12.144 22.2546 11.1978 21.4646 10.4596 20.442L10.4525 20.4322L10.4526 20.4322C10.3586 20.2985 10.2681 20.1617 10.1811 20.0217C10.0253 20.5884 9.94413 21.2204 9.94413 21.9247C9.94413 23.681 10.4476 24.9964 11.3779 25.9735L11.3876 25.9837L11.3875 25.9838C12.278 26.9459 13.4837 27.4587 15.1173 27.4587L30.8827 27.4587C32.513 27.4587 33.7398 26.9475 34.6647 25.9786C35.5652 25.003 36.0559 23.6855 36.0559 21.9247C36.0559 20.1683 35.5524 18.8529 34.6221 17.8758L34.6127 17.8659L34.6128 17.8658C34.305 17.5336 33.9697 17.2575 33.6048 17.0358V22.2239V23.2239H32.6048H29.4607H28.4607V22.2239V5.84967C28.1536 5.85443 27.8621 5.85918 27.5862 5.86393L13.2854 22.8037ZM13.2854 22.8037L13.2959 22.8086C14.4596 23.3518 15.8075 23.6039 17.3082 23.6039C18.7913 23.6039 20.1234 23.3336 21.2684 22.7494L21.272 22.7475C22.4024 22.1651 23.3346 21.3431 24.0582 20.2924L24.061 20.2883C24.7737 19.2425 25.2811 18.0117 25.6006 16.6168L25.601 16.6152C25.9172 15.2243 26.071 13.6919 26.071 12.0243C26.071 10.3714 25.9274 8.87839 25.6295 7.55369L13.2854 22.8037ZM23.8175 3.64353C23.8222 3.49114 23.8315 3.32672 23.8448 3.15152L23.8461 3.13487L23.8479 3.11827C23.88 2.82652 23.9322 2.51174 24.0021 2.17604L24.1679 1.37993H24.9811H37.3627H38.272L38.3582 2.28516C38.3675 2.38287 38.3767 2.48495 38.386 2.59137C38.396 2.6868 38.4056 2.79387 38.415 2.91161C38.415 2.9126 38.4151 2.91358 38.4152 2.91457L37.4183 2.99366C37.4276 3.10082 37.4322 3.20798 37.4322 3.31514L23.8175 3.64353ZM23.8175 3.64353C23.1455 2.83065 22.3098 2.20148 21.3224 1.76054C20.1758 1.23874 18.8258 1 17.3082 1C15.8393 1 14.5128 1.25871 13.3586 1.81312C12.2165 2.35197 11.2662 3.13642 10.5193 4.15634L10.5192 4.15632L10.5152 4.16187C9.78682 5.17092 9.2623 6.37537 8.92231 7.75131L8.92229 7.75131L8.92069 7.75798C8.59286 9.12493 8.43402 10.6421 8.43402 12.3019C8.43402 12.626 8.4399 12.9445 8.45171 13.2573C8.31349 13.3828 8.19141 13.4995 8.09144 13.5978C7.9982 13.6895 7.92275 13.7665 7.86972 13.8216C7.84318 13.8492 7.82217 13.8714 7.80727 13.8872L7.78954 13.9061L7.78423 13.9119L7.78249 13.9138L7.78185 13.9144L7.78159 13.9147L7.78147 13.9149C7.78142 13.9149 7.78136 13.915 8.51676 14.5926L7.78136 13.915L7.77988 13.9166C5.89566 15.9704 5 18.6761 5 21.9247C5 25.1487 5.91639 27.851 7.82737 29.9327C9.72114 31.997 12.2514 33 15.3073 33H30.6453C33.7013 33 36.243 31.9971 38.1663 29.9396L38.1663 29.9396L38.1724 29.933C40.0835 27.8512 41 25.1489 41 21.9247C41 18.6761 40.1043 15.9704 38.2201 13.9166L38.2199 13.9163C36.949 12.532 35.403 11.6056 33.6048 11.1436V5.84166C33.7599 5.84373 33.9164 5.84627 34.0743 5.84929C34.5835 5.85901 35.0554 5.86873 35.49 5.87845C35.9174 5.888 36.2738 5.90218 36.5618 5.92051L36.5781 5.92155L36.5945 5.92206C36.7491 5.92683 36.8696 5.93148 36.958 5.9359C37.0298 5.93949 37.0653 5.94226 37.0766 5.94314C37.081 5.94349 37.0817 5.94354 37.0795 5.94325L37.9183 6.05339L38.1659 5.24438C38.2701 4.90385 38.3374 4.54783 38.3713 4.17897L23.8175 3.64353ZM18.9575 18.6262L18.9574 18.6262L18.9514 18.6302C18.5688 18.8854 18.0421 19.0466 17.3082 19.0466C16.559 19.0466 15.9918 18.9028 15.5631 18.6661C15.129 18.4116 14.767 18.0453 14.4785 17.5387C14.1776 17.0003 13.9395 16.3035 13.7868 15.4238C13.6403 14.5253 13.5642 13.4863 13.5642 12.3019C13.5642 11.1175 13.6403 10.0786 13.7868 9.18004C13.9398 8.29879 14.1784 7.60113 14.4801 7.06239L14.4801 7.0624L14.4831 7.05697C14.7747 6.5287 15.136 6.16463 15.5606 5.92447L15.5607 5.92449L15.5655 5.92173C15.993 5.67681 16.5586 5.52799 17.3082 5.52799C18.0814 5.52799 18.6446 5.66132 19.0471 5.86934L19.0471 5.86936L19.0528 5.87226C19.4578 6.0783 19.7914 6.39546 20.0547 6.86128L20.0592 6.86915L20.0638 6.87693C20.3437 7.35192 20.5674 8.00173 20.7025 8.86235L20.7025 8.86236L20.7043 8.87346C20.8502 9.73867 20.9269 10.7861 20.9269 12.0243C20.9269 13.1696 20.8509 14.2019 20.703 15.1247L20.703 15.1247L20.7016 15.1338C20.5654 16.0368 20.3368 16.7768 20.0339 17.3722L20.0317 17.3765C19.7497 17.9379 19.389 18.3429 18.9575 18.6262Z" stroke="white" stroke-width="2"/>
</g>
<g filter="url(#filter1_d_1330_3695)">
<mask id="path-3-outside-1_1330_3695" maskUnits="userSpaceOnUse" x="45" y="3" width="128" height="28" fill="black">
<rect fill="white" x="45" y="3" width="128" height="28"/>
<path d="M47 20.307C47 18.8663 47.1712 17.5948 47.5137 16.4925C47.8659 15.3902 48.3551 14.4679 48.9814 13.7258C49.6173 12.9836 50.3707 12.4216 51.2416 12.0396C52.1222 11.6576 53.0908 11.4666 54.1475 11.4666C55.2336 11.4666 56.2121 11.6467 57.0829 12.0068C57.9537 12.3561 58.6924 12.8909 59.2991 13.6112C59.9057 14.3315 60.3705 15.2319 60.6933 16.3124C61.0162 17.382 61.1777 18.6371 61.1777 20.0778C61.1777 21.5184 61.0113 22.7954 60.6787 23.9086C60.3558 25.0218 59.8861 25.955 59.2697 26.708C58.6631 27.4611 57.9243 28.0341 57.0535 28.427C56.1925 28.809 55.2238 29 54.1475 29C53.0321 29 52.0292 28.8199 51.1388 28.4598C50.2582 28.0887 49.5097 27.543 48.8933 26.8226C48.2867 26.0914 47.817 25.1855 47.4843 24.105C47.1614 23.0136 47 21.7476 47 20.307ZM54.1475 26.2988C54.7933 26.2988 55.351 26.146 55.8207 25.8404C56.3001 25.5239 56.6915 25.0928 56.9948 24.5471C57.2981 23.9905 57.5232 23.3356 57.6699 22.5825C57.8167 21.8186 57.8901 20.9836 57.8901 20.0778C57.8901 18.1241 57.5917 16.6344 56.9948 15.6085C56.398 14.5825 55.4489 14.0696 54.1475 14.0696C53.492 14.0696 52.9196 14.2278 52.4304 14.5443C51.9509 14.8499 51.5498 15.281 51.2269 15.8377C50.9138 16.3943 50.679 17.0546 50.5224 17.8186C50.3659 18.5825 50.2876 19.412 50.2876 20.307C50.2876 22.2824 50.6007 23.7776 51.2269 24.7926C51.8629 25.7967 52.8364 26.2988 54.1475 26.2988Z"/>
<path d="M64.1933 14.9372L63.0339 13.6112V11.7613H65.7344L66.9966 13.0382L67.4222 12.94C67.4907 12.8745 67.6472 12.7599 67.8918 12.5962C68.1462 12.4325 68.4545 12.2688 68.8165 12.105C69.1883 11.9413 69.609 11.7995 70.0787 11.6794C70.5483 11.5484 71.0424 11.4829 71.561 11.4829C72.3829 11.4829 73.1119 11.6194 73.7478 11.8922C74.3936 12.1651 74.9367 12.558 75.377 13.0709C75.8173 13.573 76.1499 14.1787 76.375 14.8881C76.6 15.5975 76.7125 16.3943 76.7125 17.2783V28.6726H73.557V17.6221C73.557 16.4325 73.332 15.5593 72.8819 15.0027C72.4416 14.4352 71.7371 14.1514 70.7685 14.1514C70.289 14.1514 69.8438 14.2005 69.4329 14.2988C69.022 14.3861 68.6599 14.4898 68.3468 14.6098C67.9848 14.7408 67.6472 14.8936 67.3341 15.0682V28.6726H64.1933V14.9372Z"/>
<path d="M80.7115 14.9372L79.5521 13.6112V11.7613H82.2526L83.5148 13.0382L83.9404 12.94C84.0089 12.8745 84.1654 12.7599 84.41 12.5962C84.6644 12.4325 84.9727 12.2688 85.3347 12.105C85.7065 11.9413 86.1272 11.7995 86.5969 11.6794C87.0665 11.5484 87.5606 11.4829 88.0792 11.4829C88.9011 11.4829 89.6301 11.6194 90.266 11.8922C90.9118 12.1651 91.4548 12.558 91.8951 13.0709C92.3355 13.573 92.6681 14.1787 92.8932 14.8881C93.1182 15.5975 93.2307 16.3943 93.2307 17.2783V28.6726H90.0752V17.6221C90.0752 16.4325 89.8502 15.5593 89.4001 15.0027C88.9598 14.4352 88.2553 14.1514 87.2867 14.1514C86.8072 14.1514 86.362 14.2005 85.9511 14.2988C85.5401 14.3861 85.1781 14.4898 84.865 14.6098C84.503 14.7408 84.1654 14.8936 83.8523 15.0682V28.6726H80.7115V14.9372Z"/>
<path d="M96.129 20.4707C96.129 18.899 96.3002 17.5457 96.6427 16.4106C96.9851 15.2756 97.4645 14.3424 98.081 13.6112C98.6974 12.8799 99.4312 12.3452 100.282 12.0068C101.143 11.6576 102.088 11.4829 103.115 11.4829C104.064 11.4829 104.911 11.663 105.654 12.0232C106.408 12.3724 107.044 12.869 107.562 13.513C108.081 14.1569 108.477 14.9263 108.751 15.8213C109.025 16.7162 109.162 17.704 109.162 18.7844C109.162 19.1555 109.147 19.4993 109.118 19.8158C109.088 20.1323 109.054 20.4052 109.015 20.6344C108.976 20.9072 108.932 21.1528 108.883 21.3711L99.2551 21.322C99.2649 22.2933 99.3578 23.101 99.534 23.7449C99.7101 24.3779 99.9694 24.8799 100.312 25.251C100.664 25.6221 101.104 25.884 101.633 26.0368C102.161 26.1787 102.787 26.2497 103.511 26.2497C104.128 26.2497 104.681 26.206 105.17 26.1187C105.659 26.0314 106.075 25.9277 106.417 25.8076C106.809 25.6767 107.161 25.5239 107.474 25.3493C107.621 25.7312 107.733 26.0859 107.812 26.4134C107.9 26.7408 107.963 27.0246 108.002 27.2647C108.042 27.5484 108.071 27.7995 108.09 28.0177C107.768 28.2033 107.376 28.367 106.916 28.5089C106.525 28.6289 106.046 28.7381 105.478 28.8363C104.911 28.9454 104.255 29 103.511 29C102.337 29 101.29 28.8527 100.371 28.558C99.4606 28.2633 98.6876 27.7831 98.0516 27.1173C97.4254 26.4407 96.946 25.5621 96.6133 24.4816C96.2904 23.3902 96.129 22.0532 96.129 20.4707ZM106.021 18.9318V18.3752C106.021 17.6876 105.943 17.0819 105.786 16.558C105.639 16.0232 105.434 15.5757 105.17 15.2156C104.906 14.8554 104.593 14.5825 104.23 14.397C103.868 14.2115 103.477 14.1187 103.056 14.1187C102.44 14.1187 101.897 14.2115 101.427 14.397C100.958 14.5716 100.561 14.8554 100.238 15.2483C99.9253 15.6303 99.6905 16.1269 99.534 16.7381C99.3774 17.3492 99.2991 18.0805 99.2991 18.9318H106.021Z"/>
<path d="M111.15 20.2742C111.15 18.8336 111.307 17.5675 111.62 16.4761C111.933 15.3738 112.388 14.4516 112.985 13.7094C113.591 12.9673 114.33 12.4106 115.201 12.0396C116.082 11.6576 117.084 11.4666 118.21 11.4666C118.621 11.4666 119.036 11.5102 119.457 11.5975C119.878 11.6849 120.259 11.7776 120.602 11.8759C120.993 11.9959 121.375 12.1323 121.747 12.2851C121.717 12.5907 121.673 12.9072 121.615 13.2347C121.566 13.5184 121.492 13.8295 121.394 14.1678C121.306 14.4952 121.194 14.8172 121.057 15.1337C120.793 15.0136 120.509 14.899 120.206 14.7899C119.941 14.7026 119.638 14.6207 119.296 14.5443C118.953 14.4679 118.591 14.4297 118.21 14.4297C117.554 14.4297 116.982 14.5662 116.492 14.839C116.013 15.101 115.612 15.4884 115.289 16.0014C114.966 16.5034 114.726 17.1146 114.57 17.8349C114.413 18.5553 114.335 19.3629 114.335 20.2578C114.335 22.2224 114.673 23.7121 115.348 24.7271C116.033 25.7422 117.035 26.2497 118.356 26.2497C118.748 26.2497 119.12 26.2169 119.472 26.1514C119.824 26.075 120.142 25.9932 120.426 25.9059C120.749 25.7967 121.052 25.6767 121.336 25.5457C121.434 25.7858 121.522 26.0477 121.6 26.3315C121.668 26.5825 121.727 26.8718 121.776 27.1992C121.835 27.5157 121.859 27.8595 121.849 28.2306C121.487 28.3724 121.111 28.5034 120.719 28.6235C120.387 28.7217 120.01 28.809 119.589 28.8854C119.178 28.9618 118.767 29 118.356 29C116.057 29 114.281 28.2688 113.029 26.8063C111.776 25.3438 111.15 23.1664 111.15 20.2742Z"/>
<path d="M124.924 14.4789H123.001C122.991 14.3588 122.982 14.2278 122.972 14.0859C122.962 13.9659 122.952 13.824 122.942 13.6603C122.942 13.4966 122.942 13.3165 122.942 13.1201C122.942 12.9236 122.947 12.7435 122.957 12.5798C122.967 12.4052 122.982 12.1924 123.001 11.9413H124.924V9.33834L126.612 7.2101H127.918V11.9413H132.071C132.091 12.0505 132.106 12.1814 132.115 12.3342C132.135 12.487 132.145 12.6344 132.145 12.7763C132.145 13.0273 132.12 13.2565 132.071 13.4638C132.032 13.6712 131.988 13.8513 131.939 14.0041C131.881 14.1787 131.812 14.337 131.734 14.4789H127.918V23.9741C127.918 24.7708 128.035 25.3492 128.27 25.7094C128.515 26.0696 128.901 26.2497 129.43 26.2497C129.655 26.2497 129.889 26.2224 130.134 26.1678C130.388 26.1023 130.628 26.0259 130.853 25.9386C131.108 25.8404 131.367 25.7312 131.631 25.6112C131.827 25.895 131.978 26.1733 132.086 26.4461C132.203 26.719 132.287 26.9645 132.336 27.1828C132.394 27.4338 132.428 27.6685 132.438 27.8868C132.164 28.0941 131.856 28.2797 131.514 28.4434C131.21 28.5853 130.848 28.7108 130.428 28.8199C130.007 28.94 129.522 29 128.975 29C128.211 29 127.57 28.8909 127.052 28.6726C126.543 28.4652 126.127 28.1542 125.804 27.7394C125.491 27.3138 125.266 26.7899 125.129 26.1678C124.992 25.5348 124.924 24.809 124.924 23.9904V14.4789Z"/>
<path d="M136.599 9.10914C136.325 9.10914 136.065 9.05457 135.821 8.94543C135.586 8.83629 135.376 8.68895 135.19 8.50341C135.014 8.31787 134.872 8.10505 134.764 7.86494C134.656 7.61392 134.603 7.34652 134.603 7.06276C134.603 6.76808 134.656 6.49523 134.764 6.2442C134.872 5.99318 135.014 5.7749 135.19 5.58936C135.376 5.40382 135.586 5.26194 135.821 5.16371C136.065 5.05457 136.325 5 136.599 5C136.873 5 137.132 5.05457 137.377 5.16371C137.621 5.26194 137.832 5.40382 138.008 5.58936C138.194 5.7749 138.34 5.99318 138.448 6.2442C138.556 6.49523 138.609 6.76808 138.609 7.06276C138.609 7.34652 138.556 7.61392 138.448 7.86494C138.34 8.10505 138.194 8.31787 138.008 8.50341C137.832 8.68895 137.621 8.83629 137.377 8.94543C137.132 9.05457 136.873 9.10914 136.599 9.10914ZM134.911 11.9413H137.964V25.9222L138.83 26.6098V28.6726H137.993L137.964 28.6398V28.6726C136.995 28.6726 136.242 28.4543 135.703 28.0177C135.175 27.5812 134.911 26.8608 134.911 25.8568V11.9413Z"/>
<path d="M141.287 20.307C141.287 18.8663 141.459 17.5948 141.801 16.4925C142.153 15.3902 142.643 14.4679 143.269 13.7258C143.905 12.9836 144.658 12.4216 145.529 12.0396C146.41 11.6576 147.378 11.4666 148.435 11.4666C149.521 11.4666 150.5 11.6467 151.37 12.0068C152.241 12.3561 152.98 12.8909 153.587 13.6112C154.193 14.3315 154.658 15.2319 154.981 16.3124C155.304 17.382 155.465 18.6371 155.465 20.0778C155.465 21.5184 155.299 22.7954 154.966 23.9086C154.643 25.0218 154.174 25.955 153.557 26.708C152.951 27.4611 152.212 28.0341 151.341 28.427C150.48 28.809 149.511 29 148.435 29C147.32 29 146.317 28.8199 145.426 28.4598C144.546 28.0887 143.797 27.543 143.181 26.8226C142.574 26.0914 142.104 25.1855 141.772 24.105C141.449 23.0136 141.287 21.7476 141.287 20.307ZM148.435 26.2988C149.081 26.2988 149.639 26.146 150.108 25.8404C150.588 25.5239 150.979 25.0928 151.282 24.5471C151.586 23.9905 151.811 23.3356 151.957 22.5825C152.104 21.8186 152.178 20.9836 152.178 20.0778C152.178 18.1241 151.879 16.6344 151.282 15.6085C150.685 14.5825 149.736 14.0696 148.435 14.0696C147.779 14.0696 147.207 14.2278 146.718 14.5443C146.238 14.8499 145.837 15.281 145.514 15.8377C145.201 16.3943 144.966 17.0546 144.81 17.8186C144.653 18.5825 144.575 19.412 144.575 20.307C144.575 22.2824 144.888 23.7776 145.514 24.7926C146.15 25.7967 147.124 26.2988 148.435 26.2988Z"/>
<path d="M158.481 14.9372L157.321 13.6112V11.7613H160.022L161.284 13.0382L161.71 12.94C161.778 12.8745 161.935 12.7599 162.179 12.5962C162.434 12.4325 162.742 12.2688 163.104 12.105C163.476 11.9413 163.896 11.7995 164.366 11.6794C164.836 11.5484 165.33 11.4829 165.848 11.4829C166.67 11.4829 167.399 11.6194 168.035 11.8922C168.681 12.1651 169.224 12.558 169.664 13.0709C170.105 13.573 170.437 14.1787 170.662 14.8881C170.887 15.5975 171 16.3943 171 17.2783V28.6726H167.845V17.6221C167.845 16.4325 167.619 15.5593 167.169 15.0027C166.729 14.4352 166.025 14.1514 165.056 14.1514C164.577 14.1514 164.131 14.2005 163.72 14.2988C163.309 14.3861 162.947 14.4898 162.634 14.6098C162.272 14.7408 161.935 14.8936 161.622 15.0682V28.6726H158.481V14.9372Z"/>
</mask>
<path d="M47 20.307C47 18.8663 47.1712 17.5948 47.5137 16.4925C47.8659 15.3902 48.3551 14.4679 48.9814 13.7258C49.6173 12.9836 50.3707 12.4216 51.2416 12.0396C52.1222 11.6576 53.0908 11.4666 54.1475 11.4666C55.2336 11.4666 56.2121 11.6467 57.0829 12.0068C57.9537 12.3561 58.6924 12.8909 59.2991 13.6112C59.9057 14.3315 60.3705 15.2319 60.6933 16.3124C61.0162 17.382 61.1777 18.6371 61.1777 20.0778C61.1777 21.5184 61.0113 22.7954 60.6787 23.9086C60.3558 25.0218 59.8861 25.955 59.2697 26.708C58.6631 27.4611 57.9243 28.0341 57.0535 28.427C56.1925 28.809 55.2238 29 54.1475 29C53.0321 29 52.0292 28.8199 51.1388 28.4598C50.2582 28.0887 49.5097 27.543 48.8933 26.8226C48.2867 26.0914 47.817 25.1855 47.4843 24.105C47.1614 23.0136 47 21.7476 47 20.307ZM54.1475 26.2988C54.7933 26.2988 55.351 26.146 55.8207 25.8404C56.3001 25.5239 56.6915 25.0928 56.9948 24.5471C57.2981 23.9905 57.5232 23.3356 57.6699 22.5825C57.8167 21.8186 57.8901 20.9836 57.8901 20.0778C57.8901 18.1241 57.5917 16.6344 56.9948 15.6085C56.398 14.5825 55.4489 14.0696 54.1475 14.0696C53.492 14.0696 52.9196 14.2278 52.4304 14.5443C51.9509 14.8499 51.5498 15.281 51.2269 15.8377C50.9138 16.3943 50.679 17.0546 50.5224 17.8186C50.3659 18.5825 50.2876 19.412 50.2876 20.307C50.2876 22.2824 50.6007 23.7776 51.2269 24.7926C51.8629 25.7967 52.8364 26.2988 54.1475 26.2988Z" fill="#44A0E3"/>
<path d="M64.1933 14.9372L63.0339 13.6112V11.7613H65.7344L66.9966 13.0382L67.4222 12.94C67.4907 12.8745 67.6472 12.7599 67.8918 12.5962C68.1462 12.4325 68.4545 12.2688 68.8165 12.105C69.1883 11.9413 69.609 11.7995 70.0787 11.6794C70.5483 11.5484 71.0424 11.4829 71.561 11.4829C72.3829 11.4829 73.1119 11.6194 73.7478 11.8922C74.3936 12.1651 74.9367 12.558 75.377 13.0709C75.8173 13.573 76.1499 14.1787 76.375 14.8881C76.6 15.5975 76.7125 16.3943 76.7125 17.2783V28.6726H73.557V17.6221C73.557 16.4325 73.332 15.5593 72.8819 15.0027C72.4416 14.4352 71.7371 14.1514 70.7685 14.1514C70.289 14.1514 69.8438 14.2005 69.4329 14.2988C69.022 14.3861 68.6599 14.4898 68.3468 14.6098C67.9848 14.7408 67.6472 14.8936 67.3341 15.0682V28.6726H64.1933V14.9372Z" fill="#44A0E3"/>
<path d="M80.7115 14.9372L79.5521 13.6112V11.7613H82.2526L83.5148 13.0382L83.9404 12.94C84.0089 12.8745 84.1654 12.7599 84.41 12.5962C84.6644 12.4325 84.9727 12.2688 85.3347 12.105C85.7065 11.9413 86.1272 11.7995 86.5969 11.6794C87.0665 11.5484 87.5606 11.4829 88.0792 11.4829C88.9011 11.4829 89.6301 11.6194 90.266 11.8922C90.9118 12.1651 91.4548 12.558 91.8951 13.0709C92.3355 13.573 92.6681 14.1787 92.8932 14.8881C93.1182 15.5975 93.2307 16.3943 93.2307 17.2783V28.6726H90.0752V17.6221C90.0752 16.4325 89.8502 15.5593 89.4001 15.0027C88.9598 14.4352 88.2553 14.1514 87.2867 14.1514C86.8072 14.1514 86.362 14.2005 85.9511 14.2988C85.5401 14.3861 85.1781 14.4898 84.865 14.6098C84.503 14.7408 84.1654 14.8936 83.8523 15.0682V28.6726H80.7115V14.9372Z" fill="#44A0E3"/>
<path d="M96.129 20.4707C96.129 18.899 96.3002 17.5457 96.6427 16.4106C96.9851 15.2756 97.4645 14.3424 98.081 13.6112C98.6974 12.8799 99.4312 12.3452 100.282 12.0068C101.143 11.6576 102.088 11.4829 103.115 11.4829C104.064 11.4829 104.911 11.663 105.654 12.0232C106.408 12.3724 107.044 12.869 107.562 13.513C108.081 14.1569 108.477 14.9263 108.751 15.8213C109.025 16.7162 109.162 17.704 109.162 18.7844C109.162 19.1555 109.147 19.4993 109.118 19.8158C109.088 20.1323 109.054 20.4052 109.015 20.6344C108.976 20.9072 108.932 21.1528 108.883 21.3711L99.2551 21.322C99.2649 22.2933 99.3578 23.101 99.534 23.7449C99.7101 24.3779 99.9694 24.8799 100.312 25.251C100.664 25.6221 101.104 25.884 101.633 26.0368C102.161 26.1787 102.787 26.2497 103.511 26.2497C104.128 26.2497 104.681 26.206 105.17 26.1187C105.659 26.0314 106.075 25.9277 106.417 25.8076C106.809 25.6767 107.161 25.5239 107.474 25.3493C107.621 25.7312 107.733 26.0859 107.812 26.4134C107.9 26.7408 107.963 27.0246 108.002 27.2647C108.042 27.5484 108.071 27.7995 108.09 28.0177C107.768 28.2033 107.376 28.367 106.916 28.5089C106.525 28.6289 106.046 28.7381 105.478 28.8363C104.911 28.9454 104.255 29 103.511 29C102.337 29 101.29 28.8527 100.371 28.558C99.4606 28.2633 98.6876 27.7831 98.0516 27.1173C97.4254 26.4407 96.946 25.5621 96.6133 24.4816C96.2904 23.3902 96.129 22.0532 96.129 20.4707ZM106.021 18.9318V18.3752C106.021 17.6876 105.943 17.0819 105.786 16.558C105.639 16.0232 105.434 15.5757 105.17 15.2156C104.906 14.8554 104.593 14.5825 104.23 14.397C103.868 14.2115 103.477 14.1187 103.056 14.1187C102.44 14.1187 101.897 14.2115 101.427 14.397C100.958 14.5716 100.561 14.8554 100.238 15.2483C99.9253 15.6303 99.6905 16.1269 99.534 16.7381C99.3774 17.3492 99.2991 18.0805 99.2991 18.9318H106.021Z" fill="#44A0E3"/>
<path d="M111.15 20.2742C111.15 18.8336 111.307 17.5675 111.62 16.4761C111.933 15.3738 112.388 14.4516 112.985 13.7094C113.591 12.9673 114.33 12.4106 115.201 12.0396C116.082 11.6576 117.084 11.4666 118.21 11.4666C118.621 11.4666 119.036 11.5102 119.457 11.5975C119.878 11.6849 120.259 11.7776 120.602 11.8759C120.993 11.9959 121.375 12.1323 121.747 12.2851C121.717 12.5907 121.673 12.9072 121.615 13.2347C121.566 13.5184 121.492 13.8295 121.394 14.1678C121.306 14.4952 121.194 14.8172 121.057 15.1337C120.793 15.0136 120.509 14.899 120.206 14.7899C119.941 14.7026 119.638 14.6207 119.296 14.5443C118.953 14.4679 118.591 14.4297 118.21 14.4297C117.554 14.4297 116.982 14.5662 116.492 14.839C116.013 15.101 115.612 15.4884 115.289 16.0014C114.966 16.5034 114.726 17.1146 114.57 17.8349C114.413 18.5553 114.335 19.3629 114.335 20.2578C114.335 22.2224 114.673 23.7121 115.348 24.7271C116.033 25.7422 117.035 26.2497 118.356 26.2497C118.748 26.2497 119.12 26.2169 119.472 26.1514C119.824 26.075 120.142 25.9932 120.426 25.9059C120.749 25.7967 121.052 25.6767 121.336 25.5457C121.434 25.7858 121.522 26.0477 121.6 26.3315C121.668 26.5825 121.727 26.8718 121.776 27.1992C121.835 27.5157 121.859 27.8595 121.849 28.2306C121.487 28.3724 121.111 28.5034 120.719 28.6235C120.387 28.7217 120.01 28.809 119.589 28.8854C119.178 28.9618 118.767 29 118.356 29C116.057 29 114.281 28.2688 113.029 26.8063C111.776 25.3438 111.15 23.1664 111.15 20.2742Z" fill="#44A0E3"/>
<path d="M124.924 14.4789H123.001C122.991 14.3588 122.982 14.2278 122.972 14.0859C122.962 13.9659 122.952 13.824 122.942 13.6603C122.942 13.4966 122.942 13.3165 122.942 13.1201C122.942 12.9236 122.947 12.7435 122.957 12.5798C122.967 12.4052 122.982 12.1924 123.001 11.9413H124.924V9.33834L126.612 7.2101H127.918V11.9413H132.071C132.091 12.0505 132.106 12.1814 132.115 12.3342C132.135 12.487 132.145 12.6344 132.145 12.7763C132.145 13.0273 132.12 13.2565 132.071 13.4638C132.032 13.6712 131.988 13.8513 131.939 14.0041C131.881 14.1787 131.812 14.337 131.734 14.4789H127.918V23.9741C127.918 24.7708 128.035 25.3492 128.27 25.7094C128.515 26.0696 128.901 26.2497 129.43 26.2497C129.655 26.2497 129.889 26.2224 130.134 26.1678C130.388 26.1023 130.628 26.0259 130.853 25.9386C131.108 25.8404 131.367 25.7312 131.631 25.6112C131.827 25.895 131.978 26.1733 132.086 26.4461C132.203 26.719 132.287 26.9645 132.336 27.1828C132.394 27.4338 132.428 27.6685 132.438 27.8868C132.164 28.0941 131.856 28.2797 131.514 28.4434C131.21 28.5853 130.848 28.7108 130.428 28.8199C130.007 28.94 129.522 29 128.975 29C128.211 29 127.57 28.8909 127.052 28.6726C126.543 28.4652 126.127 28.1542 125.804 27.7394C125.491 27.3138 125.266 26.7899 125.129 26.1678C124.992 25.5348 124.924 24.809 124.924 23.9904V14.4789Z" fill="#44A0E3"/>
<path d="M136.599 9.10914C136.325 9.10914 136.065 9.05457 135.821 8.94543C135.586 8.83629 135.376 8.68895 135.19 8.50341C135.014 8.31787 134.872 8.10505 134.764 7.86494C134.656 7.61392 134.603 7.34652 134.603 7.06276C134.603 6.76808 134.656 6.49523 134.764 6.2442C134.872 5.99318 135.014 5.7749 135.19 5.58936C135.376 5.40382 135.586 5.26194 135.821 5.16371C136.065 5.05457 136.325 5 136.599 5C136.873 5 137.132 5.05457 137.377 5.16371C137.621 5.26194 137.832 5.40382 138.008 5.58936C138.194 5.7749 138.34 5.99318 138.448 6.2442C138.556 6.49523 138.609 6.76808 138.609 7.06276C138.609 7.34652 138.556 7.61392 138.448 7.86494C138.34 8.10505 138.194 8.31787 138.008 8.50341C137.832 8.68895 137.621 8.83629 137.377 8.94543C137.132 9.05457 136.873 9.10914 136.599 9.10914ZM134.911 11.9413H137.964V25.9222L138.83 26.6098V28.6726H137.993L137.964 28.6398V28.6726C136.995 28.6726 136.242 28.4543 135.703 28.0177C135.175 27.5812 134.911 26.8608 134.911 25.8568V11.9413Z" fill="#44A0E3"/>
<path d="M141.287 20.307C141.287 18.8663 141.459 17.5948 141.801 16.4925C142.153 15.3902 142.643 14.4679 143.269 13.7258C143.905 12.9836 144.658 12.4216 145.529 12.0396C146.41 11.6576 147.378 11.4666 148.435 11.4666C149.521 11.4666 150.5 11.6467 151.37 12.0068C152.241 12.3561 152.98 12.8909 153.587 13.6112C154.193 14.3315 154.658 15.2319 154.981 16.3124C155.304 17.382 155.465 18.6371 155.465 20.0778C155.465 21.5184 155.299 22.7954 154.966 23.9086C154.643 25.0218 154.174 25.955 153.557 26.708C152.951 27.4611 152.212 28.0341 151.341 28.427C150.48 28.809 149.511 29 148.435 29C147.32 29 146.317 28.8199 145.426 28.4598C144.546 28.0887 143.797 27.543 143.181 26.8226C142.574 26.0914 142.104 25.1855 141.772 24.105C141.449 23.0136 141.287 21.7476 141.287 20.307ZM148.435 26.2988C149.081 26.2988 149.639 26.146 150.108 25.8404C150.588 25.5239 150.979 25.0928 151.282 24.5471C151.586 23.9905 151.811 23.3356 151.957 22.5825C152.104 21.8186 152.178 20.9836 152.178 20.0778C152.178 18.1241 151.879 16.6344 151.282 15.6085C150.685 14.5825 149.736 14.0696 148.435 14.0696C147.779 14.0696 147.207 14.2278 146.718 14.5443C146.238 14.8499 145.837 15.281 145.514 15.8377C145.201 16.3943 144.966 17.0546 144.81 17.8186C144.653 18.5825 144.575 19.412 144.575 20.307C144.575 22.2824 144.888 23.7776 145.514 24.7926C146.15 25.7967 147.124 26.2988 148.435 26.2988Z" fill="#44A0E3"/>
<path d="M158.481 14.9372L157.321 13.6112V11.7613H160.022L161.284 13.0382L161.71 12.94C161.778 12.8745 161.935 12.7599 162.179 12.5962C162.434 12.4325 162.742 12.2688 163.104 12.105C163.476 11.9413 163.896 11.7995 164.366 11.6794C164.836 11.5484 165.33 11.4829 165.848 11.4829C166.67 11.4829 167.399 11.6194 168.035 11.8922C168.681 12.1651 169.224 12.558 169.664 13.0709C170.105 13.573 170.437 14.1787 170.662 14.8881C170.887 15.5975 171 16.3943 171 17.2783V28.6726H167.845V17.6221C167.845 16.4325 167.619 15.5593 167.169 15.0027C166.729 14.4352 166.025 14.1514 165.056 14.1514C164.577 14.1514 164.131 14.2005 163.72 14.2988C163.309 14.3861 162.947 14.4898 162.634 14.6098C162.272 14.7408 161.935 14.8936 161.622 15.0682V28.6726H158.481V14.9372Z" fill="#44A0E3"/>
<path d="M47 20.307C47 18.8663 47.1712 17.5948 47.5137 16.4925C47.8659 15.3902 48.3551 14.4679 48.9814 13.7258C49.6173 12.9836 50.3707 12.4216 51.2416 12.0396C52.1222 11.6576 53.0908 11.4666 54.1475 11.4666C55.2336 11.4666 56.2121 11.6467 57.0829 12.0068C57.9537 12.3561 58.6924 12.8909 59.2991 13.6112C59.9057 14.3315 60.3705 15.2319 60.6933 16.3124C61.0162 17.382 61.1777 18.6371 61.1777 20.0778C61.1777 21.5184 61.0113 22.7954 60.6787 23.9086C60.3558 25.0218 59.8861 25.955 59.2697 26.708C58.6631 27.4611 57.9243 28.0341 57.0535 28.427C56.1925 28.809 55.2238 29 54.1475 29C53.0321 29 52.0292 28.8199 51.1388 28.4598C50.2582 28.0887 49.5097 27.543 48.8933 26.8226C48.2867 26.0914 47.817 25.1855 47.4843 24.105C47.1614 23.0136 47 21.7476 47 20.307ZM54.1475 26.2988C54.7933 26.2988 55.351 26.146 55.8207 25.8404C56.3001 25.5239 56.6915 25.0928 56.9948 24.5471C57.2981 23.9905 57.5232 23.3356 57.6699 22.5825C57.8167 21.8186 57.8901 20.9836 57.8901 20.0778C57.8901 18.1241 57.5917 16.6344 56.9948 15.6085C56.398 14.5825 55.4489 14.0696 54.1475 14.0696C53.492 14.0696 52.9196 14.2278 52.4304 14.5443C51.9509 14.8499 51.5498 15.281 51.2269 15.8377C50.9138 16.3943 50.679 17.0546 50.5224 17.8186C50.3659 18.5825 50.2876 19.412 50.2876 20.307C50.2876 22.2824 50.6007 23.7776 51.2269 24.7926C51.8629 25.7967 52.8364 26.2988 54.1475 26.2988Z" stroke="white" stroke-width="4" mask="url(#path-3-outside-1_1330_3695)"/>
<path d="M64.1933 14.9372L63.0339 13.6112V11.7613H65.7344L66.9966 13.0382L67.4222 12.94C67.4907 12.8745 67.6472 12.7599 67.8918 12.5962C68.1462 12.4325 68.4545 12.2688 68.8165 12.105C69.1883 11.9413 69.609 11.7995 70.0787 11.6794C70.5483 11.5484 71.0424 11.4829 71.561 11.4829C72.3829 11.4829 73.1119 11.6194 73.7478 11.8922C74.3936 12.1651 74.9367 12.558 75.377 13.0709C75.8173 13.573 76.1499 14.1787 76.375 14.8881C76.6 15.5975 76.7125 16.3943 76.7125 17.2783V28.6726H73.557V17.6221C73.557 16.4325 73.332 15.5593 72.8819 15.0027C72.4416 14.4352 71.7371 14.1514 70.7685 14.1514C70.289 14.1514 69.8438 14.2005 69.4329 14.2988C69.022 14.3861 68.6599 14.4898 68.3468 14.6098C67.9848 14.7408 67.6472 14.8936 67.3341 15.0682V28.6726H64.1933V14.9372Z" stroke="white" stroke-width="4" mask="url(#path-3-outside-1_1330_3695)"/>
<path d="M80.7115 14.9372L79.5521 13.6112V11.7613H82.2526L83.5148 13.0382L83.9404 12.94C84.0089 12.8745 84.1654 12.7599 84.41 12.5962C84.6644 12.4325 84.9727 12.2688 85.3347 12.105C85.7065 11.9413 86.1272 11.7995 86.5969 11.6794C87.0665 11.5484 87.5606 11.4829 88.0792 11.4829C88.9011 11.4829 89.6301 11.6194 90.266 11.8922C90.9118 12.1651 91.4548 12.558 91.8951 13.0709C92.3355 13.573 92.6681 14.1787 92.8932 14.8881C93.1182 15.5975 93.2307 16.3943 93.2307 17.2783V28.6726H90.0752V17.6221C90.0752 16.4325 89.8502 15.5593 89.4001 15.0027C88.9598 14.4352 88.2553 14.1514 87.2867 14.1514C86.8072 14.1514 86.362 14.2005 85.9511 14.2988C85.5401 14.3861 85.1781 14.4898 84.865 14.6098C84.503 14.7408 84.1654 14.8936 83.8523 15.0682V28.6726H80.7115V14.9372Z" stroke="white" stroke-width="4" mask="url(#path-3-outside-1_1330_3695)"/>
<path d="M96.129 20.4707C96.129 18.899 96.3002 17.5457 96.6427 16.4106C96.9851 15.2756 97.4645 14.3424 98.081 13.6112C98.6974 12.8799 99.4312 12.3452 100.282 12.0068C101.143 11.6576 102.088 11.4829 103.115 11.4829C104.064 11.4829 104.911 11.663 105.654 12.0232C106.408 12.3724 107.044 12.869 107.562 13.513C108.081 14.1569 108.477 14.9263 108.751 15.8213C109.025 16.7162 109.162 17.704 109.162 18.7844C109.162 19.1555 109.147 19.4993 109.118 19.8158C109.088 20.1323 109.054 20.4052 109.015 20.6344C108.976 20.9072 108.932 21.1528 108.883 21.3711L99.2551 21.322C99.2649 22.2933 99.3578 23.101 99.534 23.7449C99.7101 24.3779 99.9694 24.8799 100.312 25.251C100.664 25.6221 101.104 25.884 101.633 26.0368C102.161 26.1787 102.787 26.2497 103.511 26.2497C104.128 26.2497 104.681 26.206 105.17 26.1187C105.659 26.0314 106.075 25.9277 106.417 25.8076C106.809 25.6767 107.161 25.5239 107.474 25.3493C107.621 25.7312 107.733 26.0859 107.812 26.4134C107.9 26.7408 107.963 27.0246 108.002 27.2647C108.042 27.5484 108.071 27.7995 108.09 28.0177C107.768 28.2033 107.376 28.367 106.916 28.5089C106.525 28.6289 106.046 28.7381 105.478 28.8363C104.911 28.9454 104.255 29 103.511 29C102.337 29 101.29 28.8527 100.371 28.558C99.4606 28.2633 98.6876 27.7831 98.0516 27.1173C97.4254 26.4407 96.946 25.5621 96.6133 24.4816C96.2904 23.3902 96.129 22.0532 96.129 20.4707ZM106.021 18.9318V18.3752C106.021 17.6876 105.943 17.0819 105.786 16.558C105.639 16.0232 105.434 15.5757 105.17 15.2156C104.906 14.8554 104.593 14.5825 104.23 14.397C103.868 14.2115 103.477 14.1187 103.056 14.1187C102.44 14.1187 101.897 14.2115 101.427 14.397C100.958 14.5716 100.561 14.8554 100.238 15.2483C99.9253 15.6303 99.6905 16.1269 99.534 16.7381C99.3774 17.3492 99.2991 18.0805 99.2991 18.9318H106.021Z" stroke="white" stroke-width="4" mask="url(#path-3-outside-1_1330_3695)"/>
<path d="M111.15 20.2742C111.15 18.8336 111.307 17.5675 111.62 16.4761C111.933 15.3738 112.388 14.4516 112.985 13.7094C113.591 12.9673 114.33 12.4106 115.201 12.0396C116.082 11.6576 117.084 11.4666 118.21 11.4666C118.621 11.4666 119.036 11.5102 119.457 11.5975C119.878 11.6849 120.259 11.7776 120.602 11.8759C120.993 11.9959 121.375 12.1323 121.747 12.2851C121.717 12.5907 121.673 12.9072 121.615 13.2347C121.566 13.5184 121.492 13.8295 121.394 14.1678C121.306 14.4952 121.194 14.8172 121.057 15.1337C120.793 15.0136 120.509 14.899 120.206 14.7899C119.941 14.7026 119.638 14.6207 119.296 14.5443C118.953 14.4679 118.591 14.4297 118.21 14.4297C117.554 14.4297 116.982 14.5662 116.492 14.839C116.013 15.101 115.612 15.4884 115.289 16.0014C114.966 16.5034 114.726 17.1146 114.57 17.8349C114.413 18.5553 114.335 19.3629 114.335 20.2578C114.335 22.2224 114.673 23.7121 115.348 24.7271C116.033 25.7422 117.035 26.2497 118.356 26.2497C118.748 26.2497 119.12 26.2169 119.472 26.1514C119.824 26.075 120.142 25.9932 120.426 25.9059C120.749 25.7967 121.052 25.6767 121.336 25.5457C121.434 25.7858 121.522 26.0477 121.6 26.3315C121.668 26.5825 121.727 26.8718 121.776 27.1992C121.835 27.5157 121.859 27.8595 121.849 28.2306C121.487 28.3724 121.111 28.5034 120.719 28.6235C120.387 28.7217 120.01 28.809 119.589 28.8854C119.178 28.9618 118.767 29 118.356 29C116.057 29 114.281 28.2688 113.029 26.8063C111.776 25.3438 111.15 23.1664 111.15 20.2742Z" stroke="white" stroke-width="4" mask="url(#path-3-outside-1_1330_3695)"/>
<path d="M124.924 14.4789H123.001C122.991 14.3588 122.982 14.2278 122.972 14.0859C122.962 13.9659 122.952 13.824 122.942 13.6603C122.942 13.4966 122.942 13.3165 122.942 13.1201C122.942 12.9236 122.947 12.7435 122.957 12.5798C122.967 12.4052 122.982 12.1924 123.001 11.9413H124.924V9.33834L126.612 7.2101H127.918V11.9413H132.071C132.091 12.0505 132.106 12.1814 132.115 12.3342C132.135 12.487 132.145 12.6344 132.145 12.7763C132.145 13.0273 132.12 13.2565 132.071 13.4638C132.032 13.6712 131.988 13.8513 131.939 14.0041C131.881 14.1787 131.812 14.337 131.734 14.4789H127.918V23.9741C127.918 24.7708 128.035 25.3492 128.27 25.7094C128.515 26.0696 128.901 26.2497 129.43 26.2497C129.655 26.2497 129.889 26.2224 130.134 26.1678C130.388 26.1023 130.628 26.0259 130.853 25.9386C131.108 25.8404 131.367 25.7312 131.631 25.6112C131.827 25.895 131.978 26.1733 132.086 26.4461C132.203 26.719 132.287 26.9645 132.336 27.1828C132.394 27.4338 132.428 27.6685 132.438 27.8868C132.164 28.0941 131.856 28.2797 131.514 28.4434C131.21 28.5853 130.848 28.7108 130.428 28.8199C130.007 28.94 129.522 29 128.975 29C128.211 29 127.57 28.8909 127.052 28.6726C126.543 28.4652 126.127 28.1542 125.804 27.7394C125.491 27.3138 125.266 26.7899 125.129 26.1678C124.992 25.5348 124.924 24.809 124.924 23.9904V14.4789Z" stroke="white" stroke-width="4" mask="url(#path-3-outside-1_1330_3695)"/>
<path d="M136.599 9.10914C136.325 9.10914 136.065 9.05457 135.821 8.94543C135.586 8.83629 135.376 8.68895 135.19 8.50341C135.014 8.31787 134.872 8.10505 134.764 7.86494C134.656 7.61392 134.603 7.34652 134.603 7.06276C134.603 6.76808 134.656 6.49523 134.764 6.2442C134.872 5.99318 135.014 5.7749 135.19 5.58936C135.376 5.40382 135.586 5.26194 135.821 5.16371C136.065 5.05457 136.325 5 136.599 5C136.873 5 137.132 5.05457 137.377 5.16371C137.621 5.26194 137.832 5.40382 138.008 5.58936C138.194 5.7749 138.34 5.99318 138.448 6.2442C138.556 6.49523 138.609 6.76808 138.609 7.06276C138.609 7.34652 138.556 7.61392 138.448 7.86494C138.34 8.10505 138.194 8.31787 138.008 8.50341C137.832 8.68895 137.621 8.83629 137.377 8.94543C137.132 9.05457 136.873 9.10914 136.599 9.10914ZM134.911 11.9413H137.964V25.9222L138.83 26.6098V28.6726H137.993L137.964 28.6398V28.6726C136.995 28.6726 136.242 28.4543 135.703 28.0177C135.175 27.5812 134.911 26.8608 134.911 25.8568V11.9413Z" stroke="white" stroke-width="4" mask="url(#path-3-outside-1_1330_3695)"/>
<path d="M141.287 20.307C141.287 18.8663 141.459 17.5948 141.801 16.4925C142.153 15.3902 142.643 14.4679 143.269 13.7258C143.905 12.9836 144.658 12.4216 145.529 12.0396C146.41 11.6576 147.378 11.4666 148.435 11.4666C149.521 11.4666 150.5 11.6467 151.37 12.0068C152.241 12.3561 152.98 12.8909 153.587 13.6112C154.193 14.3315 154.658 15.2319 154.981 16.3124C155.304 17.382 155.465 18.6371 155.465 20.0778C155.465 21.5184 155.299 22.7954 154.966 23.9086C154.643 25.0218 154.174 25.955 153.557 26.708C152.951 27.4611 152.212 28.0341 151.341 28.427C150.48 28.809 149.511 29 148.435 29C147.32 29 146.317 28.8199 145.426 28.4598C144.546 28.0887 143.797 27.543 143.181 26.8226C142.574 26.0914 142.104 25.1855 141.772 24.105C141.449 23.0136 141.287 21.7476 141.287 20.307ZM148.435 26.2988C149.081 26.2988 149.639 26.146 150.108 25.8404C150.588 25.5239 150.979 25.0928 151.282 24.5471C151.586 23.9905 151.811 23.3356 151.957 22.5825C152.104 21.8186 152.178 20.9836 152.178 20.0778C152.178 18.1241 151.879 16.6344 151.282 15.6085C150.685 14.5825 149.736 14.0696 148.435 14.0696C147.779 14.0696 147.207 14.2278 146.718 14.5443C146.238 14.8499 145.837 15.281 145.514 15.8377C145.201 16.3943 144.966 17.0546 144.81 17.8186C144.653 18.5825 144.575 19.412 144.575 20.307C144.575 22.2824 144.888 23.7776 145.514 24.7926C146.15 25.7967 147.124 26.2988 148.435 26.2988Z" stroke="white" stroke-width="4" mask="url(#path-3-outside-1_1330_3695)"/>
<path d="M158.481 14.9372L157.321 13.6112V11.7613H160.022L161.284 13.0382L161.71 12.94C161.778 12.8745 161.935 12.7599 162.179 12.5962C162.434 12.4325 162.742 12.2688 163.104 12.105C163.476 11.9413 163.896 11.7995 164.366 11.6794C164.836 11.5484 165.33 11.4829 165.848 11.4829C166.67 11.4829 167.399 11.6194 168.035 11.8922C168.681 12.1651 169.224 12.558 169.664 13.0709C170.105 13.573 170.437 14.1787 170.662 14.8881C170.887 15.5975 171 16.3943 171 17.2783V28.6726H167.845V17.6221C167.845 16.4325 167.619 15.5593 167.169 15.0027C166.729 14.4352 166.025 14.1514 165.056 14.1514C164.577 14.1514 164.131 14.2005 163.72 14.2988C163.309 14.3861 162.947 14.4898 162.634 14.6098C162.272 14.7408 161.935 14.8936 161.622 15.0682V28.6726H158.481V14.9372Z" stroke="white" stroke-width="4" mask="url(#path-3-outside-1_1330_3695)"/>
</g>
<defs>
<filter id="filter0_d_1330_3695" x="0" y="0" width="46" height="42" filterUnits="userSpaceOnUse" color-interpolation-filters="sRGB">
<feFlood flood-opacity="0" result="BackgroundImageFix"/>
<feColorMatrix in="SourceAlpha" type="matrix" values="0 0 0 0 0 0 0 0 0 0 0 0 0 0 0 0 0 0 127 0" result="hardAlpha"/>
<feOffset dy="4"/>
<feGaussianBlur stdDeviation="2"/>
<feComposite in2="hardAlpha" operator="out"/>
<feColorMatrix type="matrix" values="0 0 0 0 0 0 0 0 0 0 0 0 0 0 0 0 0 0 0.25 0"/>
<feBlend mode="normal" in2="BackgroundImageFix" result="effect1_dropShadow_1330_3695"/>
<feBlend mode="normal" in="SourceGraphic" in2="effect1_dropShadow_1330_3695" result="shape"/>
</filter>
<filter id="filter1_d_1330_3695" x="41" y="3" width="136" height="36" filterUnits="userSpaceOnUse" color-interpolation-filters="sRGB">
<feFlood flood-opacity="0" result="BackgroundImageFix"/>
<feColorMatrix in="SourceAlpha" type="matrix" values="0 0 0 0 0 0 0 0 0 0 0 0 0 0 0 0 0 0 127 0" result="hardAlpha"/>
<feOffset dy="4"/>
<feGaussianBlur stdDeviation="2"/>
<feComposite in2="hardAlpha" operator="out"/>
<feColorMatrix type="matrix" values="0 0 0 0 0 0 0 0 0 0 0 0 0 0 0 0 0 0 0.25 0"/>
<feBlend mode="normal" in2="BackgroundImageFix" result="effect1_dropShadow_1330_3695"/>
<feBlend mode="normal" in="SourceGraphic" in2="effect1_dropShadow_1330_3695" result="shape"/>
</filter>
</defs>
</svg>
