<svg width="33" height="32" viewBox="0 0 33 32" fill="none" xmlns="http://www.w3.org/2000/svg">
<g id="SVG">
<g id="Group">
<path id="Vector-39" d="M13.0678 26.371C12.1161 26.3739 11.1807 26.1252 10.3561 25.6501L7.90966 26.0991L8.36937 23.658C7.7728 22.624 7.53404 21.4221 7.69012 20.2386C7.8462 19.0551 8.38841 17.9562 9.23265 17.1122C10.0769 16.2683 11.176 15.7264 12.3596 15.5707C13.5431 15.4151 14.745 15.6542 15.7787 16.2512C16.8125 16.8481 17.6205 17.7694 18.0773 18.8723C18.5341 19.9752 18.6143 21.198 18.3054 22.351C17.9965 23.5041 17.3158 24.5231 16.3688 25.2499C15.4218 25.9767 14.2615 26.3708 13.0678 26.371Z" stroke="#111111" stroke-width="1.99902" stroke-linecap="round" stroke-linejoin="round"/>
<path id="Vector" d="M11.6699 13.4018C11.8383 12.2529 12.2582 11.1554 12.8997 10.1876C13.5412 9.21972 14.3884 8.40542 15.3809 7.8028C16.3734 7.20018 17.4867 6.8241 18.6414 6.7014C19.796 6.57869 20.9635 6.7124 22.0605 7.09298C23.1574 7.47355 24.1569 8.0916 24.9875 8.90301C25.818 9.71442 26.4592 10.6992 26.8653 11.787C27.2713 12.8748 27.4322 14.0389 27.3365 15.196C27.2408 16.3532 26.8907 17.475 26.3114 18.4813L26.9777 22.0311L23.4279 21.3648C22.6004 21.8437 21.6922 22.167 20.7482 22.3189" stroke="#111111" stroke-width="1.99902" stroke-linecap="round" stroke-linejoin="round"/>
</g>
</g>
</svg>
