<svg xmlns="http://www.w3.org/2000/svg" viewBox="0 0 213.5 52.38"><defs><style>.a{fill:#ff143c;}</style></defs><title>Tving logo - Brandlogos.net</title><path class="a" d="M545.13,515.34l10.4,21h16.16V487.1H556.22v20.49a1.37,1.37,0,0,1-2.6.61l-10.45-21.1H527v49.22h15.51V516a1.37,1.37,0,0,1,2.6-.61m-42-28.24h17v49.22h-17Zm73.62,20v9.07c0,8.82,3.33,15.2,9.89,19,10.47,6,25.55,2.29,32.16-2.59V509.59H603.43V524l-.29.11a8.74,8.74,0,0,1-7.52-.57,8.17,8.17,0,0,1-3-7.24V506.15a5.48,5.48,0,0,1,4.1-5.94,5.68,5.68,0,0,1,6.75,3.82l14.84-8a20.47,20.47,0,0,0-18.87-10.23c-1,0-2,0-2.9.13a23.44,23.44,0,0,0-13.66,5.43,20.33,20.33,0,0,0-6.17,15.65m-129.37-20h-42.1v14.41h12.66v34.82h16.75V501.51h12.67Zm34.76,0-10.61,33a1.37,1.37,0,0,1-2.68-.42V487.1H452.73v49.23h30.42L499.8,487.1Z" transform="translate(-405.25 -485.81)"/></svg>